<svg xmlns="http://www.w3.org/2000/svg" width="432.717" height="81.456" viewBox="0 0 432.717 81.456"><path d="M84.038,70.193c0-4.431,3.2-7.721,8.94-7.721v.321c-2.05,1-3.112,3.123-3.112,6.747,0,5.243,2.307,10.1,10.918,10.1,7.234,0,16.42-3.451,16.42-12.312,0-4.852-2.706-5.757-10.1-5.757H94.386c-6.075,0-8.042-2.21-8.042-7.544,0-6.324,2.706-7.554,9.356-8.051v-.328c-5.176-1.385-9.685-5.167-9.685-10.749,0-6.248,5.489-12.236,13.946-12.236a15.928,15.928,0,0,1,7.557,1.885c3.2-4.509,5.085-5.988,7.632-5.988,2.875,0,5.341,1.881,5.341,4.683a3.768,3.768,0,0,1-3.864,3.929c-3.773,0-4.522-4.424-6.079-4.424a1.851,1.851,0,0,0-1.386.9l-.99,1.231c3.779,2.3,6.159,6.079,6.159,9.932,0,6.985-7.305,11.665-14.041,11.83-7.061.16-12.39.406-12.39,4.343,0,2.141,1.642,2.878,5.828,2.878,3.12,0,9.845-.413,12.642-.413,8.861,0,12.236,4.109,12.236,11.328,0,11.984-9.36,15.685-18.315,15.685C91.673,80.456,84.038,77,84.038,70.193ZM94.386,34.8c0,9.454,1.889,10.84,5.827,11.009,3.533-.169,5.745-1.726,5.745-11.336,0-8.116-1.563-11-5.827-11C95.941,23.48,94.386,26.268,94.386,34.8Zm68.737-3.036c0-20.523,13.217-30.443,26.851-30.443,6.238,0,11.568,2.048,14.033,2.048a6.308,6.308,0,0,0,3.692-1.32h.658l.821,17h-.738C204.329,6.813,198.261,2.221,189.807,2.221,176.585,2.221,174.7,13.3,174.7,30.295c0,17.732,2.055,30.7,15.519,30.7,10.829,0,16.411-8.292,18.387-18.558h.741l-.822,18.146h-.658a6.8,6.8,0,0,0-3.775-1.149c-3.28,0-6.485,2.459-13.546,2.459C176.916,61.894,163.122,52.7,163.122,31.768ZM5.162,60.011A8.757,8.757,0,0,0,.982,61.238H.653L0,41.709H.73c2.721,12.147,9.2,19.205,19.128,19.205,7.306,0,13.874-3.778,13.874-12.718,0-16.428-33-6.249-33-30.044C.73,5.914,10.588,1.325,18.552,1.325c3.528,0,9.768,1.309,12.315,1.309a7.022,7.022,0,0,0,4.1-1.151H35.3l.576,16.9h-.745C33.49,10.1,27.247,2.135,18.382,2.135c-7.465,0-12.97,4.274-12.97,11.335,0,15.836,33.664,5.741,33.664,29.546,0,13.386-10.265,18.8-19.38,18.8C13.3,61.811,7.712,60.011,5.162,60.011Zm374.91-17.325c0-12.063,8.539-20.027,17.817-20.027,8.371,0,15.677,6.409,15.677,18.879H390.256c0,11.166.821,19.128,9.689,19.128,5.912,0,10.258-3.531,11.9-10.84h.9c-1.557,8.208-7.137,11.909-14.274,11.909C388.7,61.736,380.073,54.757,380.073,42.686Zm10.183-1.972h7.389c5.9,0,7.3-1.712,7.3-6.312,0-6.655-2.875-10.922-7.3-10.922C392.476,23.48,390.256,29.227,390.256,40.714ZM308.448,50.819V27.25c0-2.454-.161-2.706-2.3-2.706h-3.035v-.816h6.316c2.962,0,6.485-.489,7.482-.984h.321V53.2c0,4.755,2.055,6.979,5.337,6.979,5.006,0,8.7-5.1,8.7-11.585V27.25c0-2.454-.163-2.706-2.218-2.706H325.94v-.816h6.722c2.874,0,6.155-.489,7.065-.984h.328v35.05c0,1.967.413,2.135,1.64,2.135h4.02v.816H335.706c-3.451,0-4.03-.564-4.03-4.919v-2.3h-.329c-2.378,5.665-5.66,8.212-11.487,8.212C312.472,61.736,308.448,57.632,308.448,50.819Zm-90.088,0V27.25c0-2.454-.167-2.706-2.3-2.706h-3.045v-.816h6.326c2.958,0,6.485-.489,7.467-.984h.328V53.2c0,4.755,2.055,6.979,5.332,6.979,5.01,0,8.707-5.1,8.707-11.585V27.25c0-2.454-.169-2.706-2.224-2.706h-3.112v-.816h6.733c2.873,0,6.161-.489,7.064-.984h.324v35.05c0,1.967.407,2.135,1.643,2.135h4.022v.816H245.6c-3.449,0-4.02-.564-4.02-4.919v-2.3h-.328c-2.383,5.665-5.665,8.212-11.5,8.212C222.373,61.736,218.36,57.632,218.36,50.819Zm-97.942-8.133c0-12.063,8.539-20.027,17.822-20.027,8.374,0,15.673,6.409,15.673,18.879H130.6c0,11.166.827,19.128,9.69,19.128,5.91,0,10.264-3.531,11.9-10.84h.912c-1.57,8.208-7.147,11.909-14.288,11.909C129.044,61.736,120.417,54.757,120.417,42.686ZM130.6,40.714h7.391c5.909,0,7.306-1.712,7.306-6.312,0-6.655-2.876-10.922-7.306-10.922C132.823,23.48,130.6,29.227,130.6,40.714ZM44.846,50.9c0-4.6,1.475-7.8,3.7-9.187,1.542-.975,3.083-.88,5.217-.787a28.506,28.506,0,0,0,7.256-.445c4.93-.99,5.673-2.382,5.673-5.748V31.281c0-5.091-.661-7.8-6.485-7.8-4.441,0-7.558,1.557-7.558,3.114,0,1.723,4.263,1.564,4.263,5.1,0,2.628-2.3,4.1-4.678,4.1a4.588,4.588,0,0,1-4.761-4.839c0-4.761,5.5-8.292,13.876-8.292,6.57,0,14.119,2.137,14.119,10.918V55.5c0,2.958.41,4.589,2.379,4.589,2.141,0,2.623-1.885,2.623-5.082v-.575h.825V55c0,3.451-.328,6.562-4.676,6.562a11.668,11.668,0,0,1-9.69-5.989c-2.29,4.6-5.165,6.158-10.5,6.158C49.776,61.736,44.846,59.277,44.846,50.9Zm14.367-9.357c-3.2.409-5.416.741-5.416,8.7,0,7.467,1.886,10.013,5.664,10.013,4.683,0,7.228-3.855,7.228-8.537V39.081C64.143,40.638,62.823,41.053,59.213,41.539ZM283.4,53.6V24.544h-5.419v-.816h2.631c4.921,0,10.67-3.447,10.84-11.085h.73V23.728h8.707v.816h-8.707V55.5c0,3.195.734,4.344,3.034,4.344,2.8,0,4.107-1.807,4.107-4.837v-.575h.741V55c0,3.779-1.557,6.562-7.712,6.562C286.934,61.566,283.4,59.357,283.4,53.6Zm64.484,7.143v-.816H352.9c.492,0,.734-.167.734-2.793V27.748c0-2.459-.082-3.2-2.209-3.2H348.3v-.816h6.727c2.875,0,6.157-.489,7.06-.984h.337v8.537h.326c1.145-4.031,4.348-8.622,9.118-8.622a5.914,5.914,0,0,1,6.235,5.909,4.5,4.5,0,0,1-4.606,4.839,4.089,4.089,0,0,1-4.263-4.264c0-3.361,3.364-4.271,3.364-5.255,0-.409-.656-.409-1.149-.409-4.025,0-9.024,5.664-9.024,15.186v18.47c0,2.625.326,2.793.813,2.793h5.582v.816Zm-90.207,0v-.816h4.93c.5,0,.825-.167.825-2.793V5.012c0-2.461-.169-3.2-2.307-3.2h-3.12V.986h7.153c2.863,0,5.567-.407,6.556-.986h.658V57.136c0,2.625.328,2.793.823,2.793h4.837v.816Zm173.2-.027v-5.9l-2.642,3.9h-.045l-2.647-3.889v5.887h-.8V53.443h.832l2.653,3.972,2.643-3.972h.832v7.275Zm-11.153,0V54.2h-2.435v-.76H423v.76h-2.44v6.515Z" transform="translate(0.517 0.5)" fill="#ebe7e5" stroke="rgba(0,0,0,0)" stroke-width="1"/></svg>