<svg xmlns="http://www.w3.org/2000/svg" width="281.385" height="266.425" viewBox="0 0 281.385 266.425"><path d="M69.7,194.965a70.463,70.463,0,1,1,70.463,70.46A70.462,70.462,0,0,1,69.7,194.965Zm.623,0a69.84,69.84,0,1,0,69.84-69.84A69.918,69.918,0,0,0,70.327,194.965Zm2.08,0a67.761,67.761,0,1,1,67.76,67.759A67.761,67.761,0,0,1,72.407,194.965Zm1.247,0a66.514,66.514,0,1,0,66.514-66.514A66.588,66.588,0,0,0,73.653,194.965ZM139.794,257.8l0-8.313c.128,0,.25.008.374.008s.255-.005.382-.008V257.8c-.127,0-.252.008-.382.008S139.92,257.8,139.794,257.8Zm2.672-8.363c.253-.011.5-.019.754-.031l.41,8.3-.755.031Zm-5.764,8.274.408-8.3c.253.012.5.02.758.031l-.411,8.305Zm8.433-8.45c.248-.024.5-.042.751-.067l.816,8.276c-.251.024-.5.041-.755.064Zm-11.5,8.21.814-8.276c.251.024.5.042.755.067l-.816,8.274C134.133,257.508,133.88,257.489,133.631,257.467Zm14.158-8.518c.25-.034.5-.061.751-.1l1.22,8.222c-.248.038-.5.062-.752.1Zm-17.227,8.123,1.221-8.223c.248.037.5.066.749.1l-1.219,8.222C131.064,257.135,130.81,257.109,130.562,257.072Zm19.879-8.563c.245-.045.5-.083.743-.132l1.622,8.152c-.247.049-.5.084-.743.131Zm-22.91,8.02,1.62-8.152c.247.049.5.087.744.132l-1.622,8.151C128.025,256.613,127.777,256.579,127.531,256.53Zm25.524-8.585c.243-.059.49-.106.734-.17l2.02,8.059c-.244.064-.492.111-.736.174Zm-28.539,7.888,2.02-8.06c.244.063.493.113.737.172l-2.02,8.06C125.009,255.942,124.758,255.893,124.516,255.833Zm31.128-8.586c.241-.07.489-.13.728-.205l2.412,7.949c-.239.072-.487.134-.729.207Zm-34.093,7.744,2.413-7.949c.239.075.482.138.726.205l-2.413,7.951C122.036,255.125,121.793,255.063,121.551,254.991Zm36.639-8.562c.238-.084.48-.158.717-.244L161.7,254c-.237.086-.479.159-.717.242ZM118.622,254l2.8-7.815c.234.086.477.159.717.242l-2.8,7.816C119.1,254.159,118.859,254.086,118.622,254ZM160.7,245.48c.231-.1.471-.18.7-.277l3.176,7.666c-.231.1-.469.182-.7.278Zm-44.944,7.389,3.177-7.668c.232.1.471.184.7.279l-3.177,7.667C116.225,253.051,115.987,252.969,115.755,252.869Zm47.394-8.456c.229-.111.464-.205.688-.314l3.552,7.5c-.228.108-.46.2-.69.311Zm-50.211,7.18,3.55-7.5c.229.108.46.205.689.309l-3.55,7.5C113.4,251.8,113.163,251.7,112.938,251.593Zm52.616-8.373c.225-.121.451-.229.673-.351l3.912,7.313c-.221.123-.452.232-.672.349ZM110.2,250.186l3.912-7.313c.22.12.447.229.672.348l-3.913,7.312C110.645,250.415,110.418,250.306,110.2,250.186Zm57.69-8.27c.218-.128.439-.252.652-.383l4.268,7.114c-.216.13-.438.25-.653.381Zm-60.368,6.724,4.266-7.112c.217.131.436.256.653.383l-4.268,7.11C107.955,248.891,107.734,248.769,107.519,248.639Zm62.645-8.143c.21-.141.422-.276.63-.418l4.609,6.891c-.207.14-.422.274-.632.412Zm-65.234,6.474,4.608-6.891c.208.141.42.274.634.418l-4.609,6.886C105.353,247.243,105.139,247.11,104.931,246.97Zm67.428-8c.2-.149.408-.294.609-.446l4.941,6.655c-.2.151-.407.3-.61.448Zm-69.941,6.2,4.94-6.652c.2.151.407.3.609.445l-4.939,6.655C102.827,245.464,102.62,245.319,102.418,245.167Zm-12.829-50.2a50.577,50.577,0,1,1,50.577,50.578A50.635,50.635,0,0,1,89.59,194.965Zm49.75,46.416v2.893c.275,0,.551.021.827.021s.555-.016.836-.021l0-2.893v-2.1c-.279.006-.554.021-.834.021s-.552-.014-.827-.021Zm2.171-2.109.1,2.1.142,2.885c.557-.014,1.11-.041,1.662-.077l-.142-2.891-.1-2.094C142.619,239.231,142.068,239.255,141.511,239.272Zm-4.452,2.013-.141,2.891c.549.035,1.1.062,1.66.077l.142-2.885.1-2.1c-.557-.017-1.111-.041-1.662-.081Zm6.626-2.131.205,2.088.284,2.878c.554-.046,1.105-.1,1.655-.158l-.284-2.882-.205-2.089Q144.513,239.093,143.684,239.154Zm-8.895,1.926-.283,2.882c.549.063,1.1.111,1.654.158l.283-2.878.2-2.088c-.552-.046-1.105-.1-1.652-.163Zm11.056-2.15.306,2.074.427,2.861c.55-.07,1.1-.145,1.645-.238l-.423-2.862-.309-2.076C146.946,238.783,146.4,238.86,145.845,238.93Zm-13.319,1.833-.426,2.864c.545.091,1.1.166,1.645.238L134.17,241l.308-2.074c-.55-.072-1.1-.149-1.646-.243ZM148,238.6l.409,2.057.565,2.84c.546-.1,1.093-.2,1.633-.317l-.565-2.841-.409-2.059C149.1,238.4,148.55,238.5,148,238.6Zm-17.715,1.738-.565,2.841c.539.115,1.085.219,1.633.317l.565-2.84.409-2.057c-.547-.1-1.092-.2-1.632-.321Zm19.845-2.173.508,2.035.7,2.81c.543-.127,1.082-.253,1.615-.4l-.7-2.813-.508-2.036Q150.944,237.977,150.134,238.163ZM128.069,239.8l-.7,2.812c.535.143,1.072.272,1.614.4l.7-2.811.51-2.032c-.541-.126-1.081-.259-1.615-.4Zm24.177-2.173.612,2,.839,2.777c.536-.154,1.069-.31,1.594-.477l-.842-2.776-.61-2.01C153.312,237.311,152.783,237.468,152.246,237.622Zm-26.359,1.526-.843,2.776c.527.167,1.059.323,1.593.477l.842-2.777.609-2c-.535-.154-1.066-.311-1.591-.483Zm28.438-2.172.706,1.973.978,2.731c.526-.178,1.048-.359,1.566-.553l-.978-2.735-.706-1.975C155.373,236.614,154.85,236.8,154.325,236.976Zm-30.6,1.415-.979,2.732q.778.29,1.567.554l.98-2.731.707-1.975c-.526-.178-1.051-.362-1.566-.557Zm32.643-2.166.8,1.938,1.111,2.684c.469-.185.932-.375,1.393-.575l.143-.062-1.111-2.681-.8-1.937C157.4,235.814,156.889,236.023,156.372,236.225Zm-34.751,1.3-1.11,2.681c.047.022.1.041.141.062.463.2.927.39,1.394.575l1.112-2.684.8-1.938c-.516-.2-1.031-.411-1.536-.634Zm36.752-2.147.9,1.893,1.244,2.627c.409-.184.814-.379,1.219-.572.094-.048.19-.091.284-.137l-1.244-2.625-.9-1.9C159.381,234.918,158.88,235.15,158.374,235.381Zm-38.821,1.181-1.242,2.628.24.113c.418.2.838.4,1.261.593l1.245-2.624.9-1.9c-.5-.23-1.005-.463-1.5-.712Zm40.786-2.131.988,1.851,1.372,2.559c.086-.045.174-.089.264-.139.279-.143.554-.29.829-.439.124-.068.247-.141.37-.21L162.8,235.5l-.99-1.85C161.322,233.919,160.834,234.178,160.34,234.43Zm-42.8,1.066-1.369,2.556c.12.068.238.137.361.2.272.148.547.294.822.437.1.05.188.1.282.147l1.37-2.559.989-1.849c-.494-.253-.985-.514-1.467-.787ZM96.656,194.965a43.51,43.51,0,1,0,43.51-43.511A43.51,43.51,0,0,0,96.656,194.965Zm65.59,38.428,1.079,1.8,1.5,2.5c.028-.017.059-.031.086-.047.452-.263.9-.53,1.341-.806.217-.134.431-.274.644-.413.466-.3.929-.607,1.382-.922.208-.143.41-.292.616-.44q.675-.482,1.336-.989c.2-.156.4-.311.6-.473q.653-.518,1.286-1.053l.571-.495q.626-.552,1.23-1.121c.186-.172.37-.351.553-.526.4-.386.79-.779,1.175-1.175.176-.183.351-.364.526-.547.376-.4.749-.818,1.112-1.235.168-.191.337-.383.5-.576.36-.421.709-.854,1.054-1.287.156-.2.312-.394.467-.594.337-.439.664-.886.988-1.337.149-.208.3-.415.443-.624.316-.454.619-.919.92-1.386.138-.209.276-.42.41-.634.16-.259.321-.519.477-.778.129-.215.248-.435.373-.653l-2.494-1.493-1.8-1.076c-.277.483-.558.958-.854,1.429l1.8,1.076,2.5,1.495c-.134.213-.271.425-.409.632l-2.418-1.614-1.745-1.16c-.3.466-.6.929-.923,1.385l1.744,1.161,2.42,1.613c-.145.212-.3.417-.442.626l-2.337-1.733-1.684-1.247c-.324.451-.652.9-.99,1.334l1.683,1.25,2.338,1.732c-.154.2-.311.4-.468.593l-2.247-1.843-1.623-1.33q-.516.655-1.053,1.286l1.621,1.329,2.25,1.843c-.166.2-.334.386-.5.579l-2.156-1.954-1.553-1.4c-.365.415-.735.828-1.117,1.232L174,226.721l2.156,1.951c-.172.184-.346.367-.521.547l-2.057-2.055-1.481-1.48q-.578.6-1.176,1.175l1.482,1.48,2.06,2.055c-.184.178-.368.355-.553.529l-1.956-2.155-1.408-1.553c-.4.382-.813.751-1.232,1.117l1.41,1.553,1.953,2.155c-.191.164-.38.332-.572.493l-1.848-2.245-1.328-1.623c-.423.361-.849.714-1.284,1.058l1.33,1.616,1.846,2.249c-.2.158-.4.319-.6.474l-1.735-2.339-1.248-1.682c-.437.342-.881.67-1.334.993l1.248,1.683,1.733,2.334q-.305.223-.616.44l-1.616-2.417-1.165-1.744c-.455.319-.916.622-1.382.925L165.274,234l1.618,2.416c-.214.139-.427.278-.644.413l-1.5-2.493-1.078-1.8C163.205,232.834,162.728,233.115,162.247,233.393Zm-46.82,4.244a.851.851,0,0,1,.08.042l1.5-2.493,1.078-1.8c-.481-.275-.958-.56-1.426-.856l-1.078,1.8-1.5,2.494C114.523,237.105,114.974,237.373,115.427,237.638Zm-16.746-16c.3.467.6.932.922,1.386.143.209.291.412.439.617q.481.678.988,1.338c.153.2.313.4.471.6.346.432.7.865,1.055,1.286.163.193.328.382.492.572.367.415.738.827,1.116,1.231.175.183.35.37.527.554.385.4.777.789,1.174,1.175.183.175.365.351.548.52q.608.57,1.23,1.12l.579.5q.632.536,1.284,1.053c.2.156.394.316.595.467.437.338.885.668,1.333.991.208.148.415.3.625.445.454.315.917.621,1.382.922.212.138.423.275.637.407-.212-.135-.425-.271-.635-.409L115.06,234l1.166-1.743c-.467-.3-.928-.607-1.382-.925l-1.164,1.744-1.617,2.417c-.211-.147-.418-.3-.625-.444l1.734-2.336,1.25-1.684q-.678-.482-1.334-.99l-1.25,1.683-1.735,2.334c-.2-.154-.4-.309-.594-.465l1.848-2.249,1.33-1.616q-.653-.517-1.284-1.058l-1.33,1.623-1.847,2.245c-.194-.164-.386-.332-.578-.5l1.955-2.156,1.408-1.552c-.417-.363-.828-.736-1.229-1.115l-1.409,1.551-1.956,2.153c-.184-.17-.365-.343-.548-.521l2.059-2.055,1.482-1.48q-.6-.575-1.174-1.175l-1.482,1.48-2.056,2.055q-.269-.274-.529-.553l2.156-1.949,1.552-1.409c-.379-.4-.747-.814-1.115-1.231l-1.552,1.406-2.157,1.949q-.248-.281-.494-.571l2.25-1.843,1.623-1.327c-.361-.423-.711-.852-1.055-1.289l-1.621,1.33-2.25,1.843c-.157-.2-.317-.4-.473-.6l2.34-1.729L105.055,222c-.339-.437-.669-.886-.99-1.336l-1.685,1.247-2.338,1.732c-.148-.205-.294-.409-.44-.618l2.423-1.613,1.742-1.161q-.474-.684-.923-1.385l-1.742,1.16-2.421,1.614c-.137-.212-.277-.425-.411-.64C98.4,221.213,98.542,221.427,98.681,221.638Zm1.232-3.564-2.5,1.49c.125.222.249.445.377.661.154.257.315.517.476.77l2.5-1.5,1.8-1.076c-.293-.469-.575-.946-.853-1.426Zm78.965-1.518,1.85.986,2.567,1.37c.27-.484.527-.976.78-1.467l-2.564-1.372-1.849-.985C179.406,215.581,179.149,216.07,178.878,216.555Zm-80.052-.483-2.565,1.372c.252.491.509.985.78,1.467l2.566-1.368,1.85-.987c-.271-.485-.53-.975-.782-1.468Zm81.068-1.438,1.9.9,2.629,1.24c.013-.023.023-.049.034-.071.234-.474.455-.953.673-1.437l-2.629-1.236-1.894-.9C180.374,213.634,180.14,214.138,179.894,214.634Zm-82.061-.618-2.626,1.242q.327.729.679,1.445c.009.018.018.04.029.058l2.627-1.241,1.9-.894c-.248-.5-.481-1-.709-1.5Zm82.983-1.359,1.939.8,2.687,1.11c.22-.508.425-1.021.628-1.536l-2.681-1.108-1.939-.8C181.246,211.634,181.039,212.149,180.815,212.657Zm-83.867-.735-2.683,1.108c.2.515.41,1.028.63,1.536l2.685-1.11,1.939-.8c-.221-.508-.43-1.022-.634-1.538Zm84.69-1.278,1.975.7,2.734.977c.194-.518.375-1.045.554-1.57l-2.732-.975-1.976-.7C182.018,209.6,181.834,210.125,181.638,210.643Zm-85.474-.868-2.732.975c.178.527.358,1.049.553,1.568l2.734-.977,1.975-.7q-.292-.779-.553-1.569Zm86.2-1.19,2.007.607,2.777.84c.168-.527.323-1.06.474-1.595l-2.774-.84-2.007-.6C182.687,207.527,182.529,208.058,182.362,208.585ZM95.488,207.6l-2.773.84c.15.535.3,1.067.474,1.595l2.776-.84,2.009-.607q-.254-.79-.478-1.591Zm87.489-1.094,2.035.508,2.813.7c.143-.534.271-1.076.4-1.615l-2.81-.7-2.036-.508C183.252,205.43,183.121,205.969,182.977,206.5Zm-88.055-1.117-2.812.7c.124.544.253,1.083.4,1.616l2.813-.7,2.035-.506c-.143-.535-.274-1.074-.4-1.614Zm88.572-1,2.057.406,2.843.562c.115-.538.216-1.085.315-1.632l-2.839-.562-2.058-.409C183.713,203.295,183.61,203.84,183.494,204.382Zm-89.028-1.226-2.84.562c.1.547.2,1.093.314,1.632l2.843-.562,2.057-.406c-.116-.542-.221-1.085-.317-1.633Zm89.434-.91,2.077.3,2.865.423c.089-.545.162-1.1.234-1.646l-2.864-.421-2.074-.308C184.068,201.151,183.991,201.7,183.9,202.246ZM94.12,200.9l-2.864.418c.073.552.148,1.1.237,1.647l2.866-.421,2.074-.307c-.089-.544-.168-1.093-.236-1.645Zm90.084-.815,2.089.2,2.879.28c.062-.547.111-1.1.155-1.654l-2.879-.281-2.086-.2C184.317,198.983,184.267,199.537,184.2,200.084Zm-90.318-1.452-2.879.281c.044.555.094,1.107.156,1.654l2.88-.28,2.086-.2c-.062-.547-.111-1.1-.155-1.654Zm90.513-.713,2.1.1,2.89.143c.034-.553.057-1.107.075-1.663l-2.889-.14-2.093-.1C184.462,196.815,184.437,197.37,184.4,197.92Zm-90.636-1.568-2.888.139c.018.555.04,1.109.075,1.66l2.891-.137,2.094-.1c-.036-.549-.061-1.105-.076-1.661Zm90.747-1.387c0,.3-.016.593-.023.889l2.1,0,2.893,0c0-.3.021-.595.021-.9,0-.256-.014-.511-.019-.768l-2.891,0-2.1,0C184.5,194.45,184.51,194.706,184.51,194.965Zm-93.675,0c0,.259.017.511.022.769l2.89,0,2.1,0c-.007-.259-.02-.514-.02-.775,0-.3.015-.591.023-.888l-2.1,0-2.892,0C90.854,194.37,90.835,194.664,90.835,194.965Zm95.659-3.047-2.093.1c.036.55.061,1.105.076,1.661l2.093-.1,2.889-.136c-.016-.559-.038-1.11-.075-1.663Zm-95.62,1.516,2.888.139,2.1.1c.015-.554.041-1.111.076-1.659l-2.094-.1-2.891-.137C90.916,192.325,90.893,192.879,90.875,193.434Zm95.418-3.791-2.089.2c.064.55.113,1.1.158,1.655l2.086-.2,2.879-.28c-.044-.552-.093-1.1-.155-1.655Zm-95.286,1.375,2.879.28,2.086.2c.046-.554.094-1.105.157-1.655l-2.086-.2-2.881-.28C91.1,189.914,91.051,190.467,91.007,191.019Zm94.972-3.629-2.075.305c.09.545.167,1.093.237,1.644l2.075-.305,2.862-.421c-.074-.549-.146-1.1-.234-1.646Zm-94.72,1.217,2.862.421,2.076.3c.067-.55.147-1.1.236-1.644l-2.074-.306-2.866-.422C91.4,187.5,91.329,188.053,91.258,188.607Zm94.293-3.462-2.057.406c.118.54.221,1.085.318,1.632l2.058-.406,2.839-.562c-.1-.545-.2-1.092-.315-1.632Zm-93.926,1.069,2.839.563,2.058.406c.1-.546.2-1.092.319-1.632l-2.059-.406-2.841-.562C91.825,185.122,91.723,185.668,91.625,186.214Zm93.389-3.284-2.035.508c.145.533.275,1.072.4,1.613l2.033-.506,2.811-.7c-.124-.541-.253-1.08-.394-1.615Zm-92.9.909,2.809.7,2.036.508c.124-.543.254-1.081.4-1.615l-2.036-.508-2.812-.7C92.365,182.756,92.237,183.294,92.113,183.839Zm92.256-3.1-2.008.607c.169.527.325,1.059.477,1.594l2.007-.609,2.776-.837c-.153-.534-.308-1.066-.474-1.593Zm-91.655.755,2.774.837,2.009.609q.225-.8.476-1.594l-2.007-.607-2.778-.838C93.02,180.427,92.866,180.959,92.714,181.493Zm90.9-2.9-1.976.7c.2.517.379,1.041.558,1.568l1.975-.7,2.73-.973c-.175-.526-.356-1.053-.551-1.571Zm-90.181.582,2.731.975,1.974.706c.179-.525.361-1.049.557-1.566l-1.977-.7-2.733-.977C93.792,178.124,93.61,178.647,93.435,179.172Zm89.32-2.7-1.939.8c.222.509.431,1.021.635,1.539l1.937-.8,2.681-1.107c-.2-.518-.409-1.033-.628-1.541Zm-88.49.431,2.681,1.107,1.938.8c.205-.518.411-1.03.634-1.539l-1.939-.8-2.685-1.11C94.675,175.871,94.468,176.386,94.265,176.9Zm87.529-2.5-1.9.895c.246.5.48,1,.709,1.5l1.9-.894,2.627-1.24c-.228-.5-.46-1.01-.7-1.5Zm-86.584.256,2.626,1.242,1.9.894c.228-.5.462-1.008.708-1.5l-1.9-.9-2.63-1.241C95.67,173.657,95.439,174.16,95.209,174.664Zm85.521-2.277-1.852.986c.271.487.528.977.784,1.47l1.85-.987,2.565-1.368c-.254-.493-.512-.985-.782-1.468Zm-84.47.1,2.564,1.368,1.85.987c.252-.493.51-.983.782-1.47l-1.853-.986-2.563-1.368C96.77,171.5,96.512,171.994,96.26,172.487Zm83.309-2.059-1.8,1.079c.294.465.581.942.854,1.426l1.8-1.076,2.5-1.5c-.191-.328-.373-.661-.57-.986-.091-.149-.189-.292-.283-.44Zm-64.978-17.653c-.172.1-.334.215-.5.321-.216.135-.43.275-.644.413-.465.3-.928.609-1.381.924-.208.141-.412.288-.617.435q-.678.486-1.336.992c-.2.156-.4.316-.6.473-.434.346-.865.7-1.285,1.056-.193.164-.382.33-.572.494q-.626.551-1.232,1.12c-.185.176-.37.35-.553.527-.4.385-.789.779-1.174,1.176-.174.182-.348.362-.519.547-.381.4-.752.817-1.117,1.233-.169.192-.335.384-.5.579-.36.423-.709.852-1.055,1.286-.156.2-.313.4-.466.593q-.5.663-.99,1.339-.224.308-.442.624c-.317.453-.621.919-.923,1.384-.134.212-.273.42-.407.636-.094.152-.194.3-.286.448-.2.321-.377.652-.564.981l2.495,1.492,1.8,1.078c.277-.482.56-.957.854-1.428l-1.8-1.078-2.5-1.493c.134-.216.273-.425.409-.636L101.1,169.9l1.745,1.165c.3-.466.6-.932.923-1.383l-1.742-1.165L99.6,166.906c.146-.211.3-.416.445-.624l2.336,1.732,1.686,1.248c.323-.452.652-.9.99-1.337l-1.685-1.248-2.339-1.732c.153-.2.311-.4.467-.593l2.25,1.846,1.623,1.327q.516-.652,1.053-1.285l-1.623-1.327-2.248-1.845.5-.581,2.156,1.956,1.555,1.406c.365-.416.736-.827,1.117-1.231l-1.555-1.408-2.156-1.954c.172-.183.346-.365.52-.546l2.059,2.056,1.482,1.485q.576-.6,1.174-1.18l-1.482-1.483-2.059-2.055c.185-.176.367-.352.553-.527l1.955,2.155,1.409,1.555c.4-.382.814-.757,1.232-1.12l-1.409-1.553-1.956-2.154c.19-.168.38-.335.572-.494l1.847,2.245,1.332,1.622c.419-.361.848-.713,1.283-1.058l-1.33-1.618-1.848-2.247c.2-.16.4-.321.6-.473l1.734,2.335,1.25,1.684c.439-.34.885-.67,1.335-.994l-1.25-1.681-1.732-2.337c.2-.145.408-.294.616-.436l1.617,2.416,1.166,1.744c.453-.318.916-.624,1.382-.923l-1.166-1.746-1.616-2.416c.214-.139.428-.28.644-.415l1.5,2.494,1.078,1.8c.469-.3.945-.579,1.425-.857l-1.077-1.8-1.495-2.495C115.206,152.42,114.893,152.59,114.591,152.775Zm66.142,14.131-2.421,1.614-1.744,1.165c.316.452.622.915.921,1.383l1.746-1.165,2.418-1.613c.139.213.28.427.414.644-.134-.218-.273-.431-.412-.644-.3-.465-.606-.932-.921-1.384-.145-.209-.292-.41-.439-.616C180.44,166.5,180.589,166.7,180.733,166.906Zm-1.427-1.952-2.339,1.732-1.684,1.246c.338.442.668.886.989,1.339l1.686-1.247,2.337-1.732q-.483-.678-.986-1.336c-.158-.2-.315-.405-.474-.6-.345-.434-.694-.863-1.054-1.286-.162-.19-.329-.381-.5-.571q-.544-.626-1.114-1.232c-.174-.186-.352-.372-.528-.555-.384-.4-.775-.791-1.175-1.176-.18-.174-.363-.35-.546-.52q-.606-.57-1.231-1.118c-.191-.17-.383-.338-.579-.5-.421-.359-.851-.709-1.284-1.056-.2-.156-.4-.314-.594-.466-.438-.338-.885-.667-1.336-.991-.205-.148-.413-.3-.623-.442q-.683-.473-1.382-.924c-.212-.138-.426-.274-.639-.407.213.132.427.269.639.409l-1.618,2.417-1.165,1.744c.466.3.927.6,1.381.923l1.166-1.744,1.616-2.416c.21.144.417.3.625.442l-1.736,2.335-1.248,1.683q.675.486,1.333.991L168.5,158.2l1.733-2.335c.2.153.4.311.594.468l-1.846,2.247-1.331,1.618q.653.517,1.283,1.058l1.33-1.622,1.848-2.245c.2.167.389.331.579.5l-1.953,2.155-1.408,1.553c.416.362.826.736,1.23,1.115l1.408-1.551,1.955-2.153c.185.17.365.345.547.518l-2.06,2.055-1.482,1.483q.6.575,1.176,1.18l1.481-1.485,2.057-2.056q.267.275.529.554l-2.158,1.951-1.553,1.408q.57.6,1.116,1.232l1.553-1.409,2.156-1.949c.166.187.332.378.5.571l-2.25,1.845-1.622,1.327q.537.635,1.053,1.285l1.623-1.327,2.25-1.846C178.99,164.549,179.149,164.752,179.305,164.954Zm-15.974-10.213-1.078,1.8c.482.276.955.561,1.425.857l1.078-1.8,1.5-2.492c-.17-.108-.336-.224-.508-.328-.3-.183-.612-.353-.919-.528Zm-2.005-1.093-.988,1.848c.493.253.983.512,1.466.783l.989-1.849,1.372-2.563c-.483-.27-.975-.528-1.469-.784Zm-45.156-1.781,1.372,2.563.99,1.849c.482-.271.971-.53,1.465-.783l-.99-1.848-1.37-2.565C117.143,151.339,116.654,151.6,116.17,151.867Zm43.106.788-.9,1.9c.5.229,1.007.46,1.5.711l.9-1.9,1.243-2.627c-.5-.245-1-.478-1.5-.7Zm-40.959-1.918,1.244,2.625.9,1.9c.5-.249,1-.482,1.5-.711l-.9-1.894-1.243-2.627C119.317,150.258,118.813,150.49,118.317,150.737Zm38.857,1.026-.8,1.94c.517.2,1.031.412,1.536.634l.8-1.938,1.112-2.682c-.508-.221-1.021-.428-1.537-.634Zm-36.661-2.047,1.111,2.682.8,1.938c.506-.221,1.02-.431,1.537-.632l-.8-1.939-1.111-2.683C121.534,149.288,121.019,149.495,120.513,149.716Zm34.524,1.265-.709,1.975c.527.178,1.05.361,1.566.56l.709-1.977.978-2.733c-.518-.2-1.043-.378-1.566-.554ZM122.762,148.8l.978,2.733.706,1.974c.517-.2,1.041-.38,1.568-.56l-.709-1.975-.976-2.729C123.8,148.424,123.28,148.606,122.762,148.8Zm30.091,1.495-.608,2.008c.535.153,1.065.311,1.591.481l.61-2.008.842-2.776c-.527-.168-1.059-.325-1.593-.478ZM125.046,148l.842,2.776.612,2.008c.524-.17,1.056-.328,1.589-.481l-.609-2.008-.841-2.773C126.105,147.679,125.573,147.836,125.046,148Zm25.6,1.729-.51,2.032c.541.127,1.081.259,1.614.4l.509-2.037.706-2.812c-.533-.143-1.074-.271-1.615-.4Zm-23.274-2.414.706,2.81.508,2.039c.534-.146,1.073-.278,1.614-.4l-.508-2.032-.7-2.81C128.449,147.047,127.91,147.176,127.375,147.319Zm21.037,1.953L148,151.33q.821.146,1.63.321l.41-2.059.567-2.84c-.542-.116-1.087-.219-1.633-.318Zm-18.686-2.521.566,2.84.41,2.059q.811-.177,1.631-.321l-.408-2.057-.565-2.839C130.811,146.533,130.268,146.635,129.726,146.751Zm16.434,2.173L145.852,151c.553.073,1.1.151,1.645.24l.31-2.075.424-2.862c-.545-.088-1.094-.165-1.644-.238ZM132.112,146.3l.422,2.864.308,2.075c.545-.089,1.094-.167,1.646-.24l-.309-2.074-.424-2.862C133.205,146.136,132.656,146.208,132.112,146.3Zm11.777,2.39-.205,2.086q.83.065,1.654.159l.205-2.086.284-2.88c-.55-.062-1.1-.113-1.655-.158Zm-9.383-2.721.283,2.88.206,2.086c.547-.062,1.1-.116,1.652-.159l-.2-2.086-.283-2.879C135.607,145.855,135.055,145.905,134.506,145.967Zm7.108,2.594-.1,2.094c.557.019,1.109.042,1.662.081l.1-2.1.142-2.889c-.553-.035-1.105-.06-1.662-.077Zm-4.7-2.81.143,2.889.1,2.1c.552-.039,1.105-.062,1.661-.081l-.1-2.094-.142-2.886C138.02,145.691,137.465,145.716,136.913,145.751Zm4.081,4.894,0-2.1v-2.893c-.276-.006-.549-.022-.825-.022s-.556.015-.836.022v4.991c.279-.008.556-.023.835-.023S140.716,150.637,140.995,150.646Zm33.491,86.682c.193-.156.39-.315.586-.477l5.256,6.4c-.192.163-.389.32-.585.477Zm-74.479,5.926,5.259-6.4q.29.243.585.477l-5.26,6.4C100.4,243.573,100.2,243.416,100.007,243.253ZM176.52,235.6c.188-.17.374-.336.56-.508l5.568,6.135c-.186.173-.374.34-.562.506Zm-78.839,5.622,5.567-6.134.561.506-5.568,6.134C98.055,241.555,97.867,241.387,97.681,241.218Zm80.795-7.46c.178-.175.355-.355.533-.535l5.862,5.854c-.178.181-.355.361-.535.536Zm-83.01,5.317,5.862-5.852c.176.18.355.359.534.535L96,239.612C95.819,239.438,95.642,239.258,95.466,239.075Zm84.867-7.241c.169-.186.336-.374.5-.564l6.141,5.565c-.168.186-.334.374-.5.562ZM93.35,236.825l6.143-5.557c.168.187.335.376.5.56l-6.142,5.559C93.686,237.2,93.519,237.012,93.35,236.825Zm-2-2.343,6.406-5.255c.161.2.316.4.477.589l-6.412,5.252C91.668,234.876,91.512,234.677,91.354,234.482Zm90.743-4.666c.162-.194.318-.392.475-.589l6.407,5.252c-.158.2-.313.4-.473.587Zm1.661-2.1c.151-.2.3-.409.445-.61l6.658,4.933c-.148.2-.292.409-.444.609Zm-94.292,4.312,6.662-4.93c.148.2.292.41.443.609l-6.66,4.933C89.759,232.443,89.618,232.234,89.466,232.033ZM134.7,226.3c0-.348.133-1.441.358-3.007a5.084,5.084,0,0,1-4.164,2.205,5.018,5.018,0,0,1-1.733-.307,5.078,5.078,0,0,1-3.029-6.5c.542-1.49,9.617-17.182,12.62-22.358-5.227,3.029-20.828,12.05-22.312,12.588a5.055,5.055,0,0,1-4.619-8.908c-1.563.224-2.651.361-2.989.361a5.442,5.442,0,0,1,0-10.885c.347,0,1.435.135,2.987.355a5.064,5.064,0,0,1,2.887-9.227,5.125,5.125,0,0,1,1.733.3c1.49.544,17.186,9.617,22.36,12.62-3.03-5.225-12.05-20.825-12.589-22.31a5.077,5.077,0,0,1,3.028-6.5,5.052,5.052,0,0,1,5.879,1.87c-.223-1.559-.356-2.643-.356-2.979a5.441,5.441,0,1,1,10.882,0c0,.348-.134,1.441-.358,3.006a5.06,5.06,0,0,1,8.925,4.6c-.542,1.487-9.618,17.185-12.619,22.359,5.225-3.03,20.826-12.05,22.31-12.589a5.066,5.066,0,0,1,4.646,8.906c1.55-.222,2.627-.357,2.962-.357a5.441,5.441,0,1,1,0,10.883c-.347,0-1.433-.135-2.986-.355a5.066,5.066,0,0,1-2.887,9.229h0A5.072,5.072,0,0,1,163.9,209c-1.489-.544-17.184-9.617-22.359-12.618,3.029,5.225,12.049,20.825,12.59,22.307a5.081,5.081,0,0,1-3.029,6.5,5.017,5.017,0,0,1-1.734.307,5.076,5.076,0,0,1-4.144-2.178c.222,1.56.359,2.646.359,2.98a5.442,5.442,0,1,1-10.885,0Zm1,0a4.445,4.445,0,1,0,8.889,0c0-1.307-2.318-15.556-4.063-26.049v25.993H139.9V199.411C138.135,209.94,135.692,224.911,135.692,226.3Zm9.848-4.481a4.083,4.083,0,0,0,3.826,2.682,4.032,4.032,0,0,0,1.391-.247,4.08,4.08,0,0,0,2.434-5.219c-.407-1.111-6.434-11.64-11-19.54l7.359,20.222-.586.213-7.639-20.991C142.879,207.994,145.106,220.629,145.54,221.82Zm-18.475-2.785a4.08,4.08,0,0,0,2.436,5.219,4.018,4.018,0,0,0,1.39.247,4.088,4.088,0,0,0,3.829-2.682c.419-1.157,2.531-13.092,4.077-22.072l-7.544,20.729-.587-.212,7.824-21.493C133.877,206.736,127.484,217.886,127.065,219.036Zm37.173-10.969a4.073,4.073,0,1,0,2.786-7.654c-1.162-.424-13.2-2.551-22.195-4.1l20.891,7.6-.213.587-21.421-7.8C152.043,201.315,163.1,207.65,164.237,208.066Zm-50.928-7.73a4.072,4.072,0,0,0,1.394,7.9,4.133,4.133,0,0,0,1.393-.245c1.118-.41,11.745-6.5,19.66-11.072l-20.3,7.386-.213-.585,20.822-7.577C127.014,197.7,114.5,199.9,113.309,200.336Zm58.2-.9a4.444,4.444,0,1,0,0-8.887c-1.314,0-15.767,2.351-26.278,4.1h26.262v.624H144.845C155.363,197.032,170.122,199.438,171.5,199.438Zm-67.12-4.5a4.45,4.45,0,0,0,4.444,4.445c1.314,0,15.773-2.354,26.285-4.1h-26.19v-.624h26.561c-10.517-1.756-25.276-4.164-26.655-4.164A4.451,4.451,0,0,0,104.385,194.935Zm60.79-8.726-20.754,7.554c9.033-1.552,21.424-3.741,22.6-4.171a4.071,4.071,0,0,0-1.392-7.9,4.153,4.153,0,0,0-1.394.245c-1.122.412-11.861,6.561-19.787,11.15l20.51-7.465Zm-54.3-1.914a4.078,4.078,0,0,0,2.432,5.221c1.171.427,13.343,2.579,22.351,4.127l-20.968-7.634.214-.587,21.2,7.72c-7.946-4.6-18.878-10.866-20.012-11.278a4.02,4.02,0,0,0-1.393-.247A4.089,4.089,0,0,0,110.877,184.294Zm18.7-18.621a4.078,4.078,0,0,0-2.432,5.222c.41,1.13,6.62,11.971,11.215,19.906l-7.5-20.591.586-.213,7.492,20.579c-1.552-9.02-3.719-21.293-4.147-22.469a4.082,4.082,0,0,0-5.217-2.434Zm20.17,3.99L142.054,190.8c4.593-7.941,10.8-18.775,11.216-19.9a4.073,4.073,0,0,0-7.654-2.788c-.428,1.175-2.6,13.454-4.147,22.477l7.691-21.133Zm-13.994-6.036c0,1.325,2.387,15.989,4.142,26.521l0-26.465h.624l0,26.363c1.752-10.5,4.123-25.048,4.123-26.419a4.444,4.444,0,1,0-8.888,0Zm49.567,61.913c.141-.21.275-.423.411-.635l6.9,4.6c-.14.21-.272.425-.412.632Zm-97.614,3.966,6.9-4.6c.138.21.268.423.41.632l-6.9,4.6C87.978,229.93,87.845,229.715,87.706,229.505Zm99.062-6.214c.131-.216.251-.437.377-.656l7.117,4.258c-.13.218-.249.439-.379.653Zm-100.7,3.594,7.116-4.255c.128.215.247.437.378.653l-7.116,4.257C86.315,227.324,86.2,227.1,86.068,226.885Zm102.039-5.92c.12-.22.228-.448.346-.672l7.315,3.9c-.115.225-.222.454-.345.674Zm-103.542,3.23,7.318-3.9c.116.224.223.452.346.672l-7.321,3.9C84.788,224.649,84.682,224.42,84.565,224.195Zm104.762-5.611c.109-.226.205-.463.312-.689l7.5,3.542c-.105.228-.2.46-.311.686ZM83.191,221.427l7.5-3.542c.1.23.2.464.311.691L83.5,222.113C83.393,221.889,83.3,221.655,83.191,221.427Zm107.238-5.291c.1-.232.184-.468.278-.7l7.672,3.171c-.1.232-.181.471-.278.7ZM81.956,218.6l7.672-3.171c.094.234.182.47.276.7L82.235,219.3C82.137,219.075,82.051,218.837,81.956,218.6Zm109.453-4.956c.086-.238.159-.481.242-.718l7.82,2.792c-.085.237-.158.479-.244.714ZM80.861,215.714l7.821-2.791c.083.238.158.481.242.717L81.1,216.427C81.019,216.193,80.946,215.951,80.861,215.714Zm111.4-4.61c.075-.24.138-.485.208-.726l7.952,2.4c-.073.239-.134.488-.209.726ZM79.914,212.781l7.951-2.4c.071.241.133.486.206.726l-7.95,2.4C80.047,213.269,79.985,213.02,79.914,212.781Zm113.079-4.25c.06-.243.111-.491.168-.736l8.06,2.011c-.059.243-.107.491-.17.736ZM79.112,209.8l8.06-2.012c.059.247.11.5.17.736l-8.06,2.011C79.219,210.287,79.17,210.038,79.112,209.8Zm114.48-3.879c.049-.248.087-.5.133-.745l8.152,1.614c-.046.247-.082.5-.133.742Zm-115.134.868,8.151-1.614c.047.249.083.5.133.745l-8.151,1.611C78.54,207.282,78.5,207.032,78.458,206.785Zm115.607-3.5c.036-.248.061-.5.1-.75l8.222,1.209c-.035.251-.058.5-.1.752Zm-116.113.449,8.223-1.21c.035.248.059.5.1.751l-8.223,1.21C78.009,204.236,77.988,203.983,77.951,203.733ZM194.4,200.622c.026-.251.042-.5.063-.754l8.274.8c-.023.252-.034.507-.061.755Zm-116.8.049,8.276-.8c.021.25.033.5.06.754l-8.277.8C77.632,201.178,77.618,200.923,77.6,200.671Zm117.011-2.716c.015-.249.019-.5.029-.752l8.3.4c-.01.253-.013.5-.028.757ZM77.393,197.59l8.3-.4c.01.25.015.5.03.751l-8.307.4C77.406,198.092,77.4,197.841,77.393,197.59Zm117.29-2.178c0-.148.01-.3.01-.447,0-.1-.007-.2-.007-.308l8.316.011c0,.1.005.2.005.3,0,.155-.008.3-.011.46Zm-117.348-.148c0-.1-.008-.2-.008-.3,0-.154.01-.305.012-.456l8.313.008c0,.151-.01.3-.01.448,0,.1.006.205.006.309Zm117.274-3.279,8.306-.4c.014.249.017.5.027.755l-8.3.4C194.627,192.489,194.624,192.238,194.608,191.985Zm-117.215.348c.011-.251.014-.506.026-.754l8.307.4c-.014.251-.02.5-.03.753ZM194.4,189.31l8.274-.8c.027.248.038.5.063.752l-8.275.806C194.442,189.812,194.429,189.559,194.4,189.31ZM77.6,189.258c.023-.25.037-.5.06-.752l8.277.8c-.027.249-.04.5-.062.755Zm116.471-2.6,8.222-1.21c.038.247.059.5.1.751l-8.225,1.209C194.127,187.16,194.1,186.9,194.066,186.658Zm-116.113-.472c.035-.247.057-.5.094-.748l8.224,1.209c-.039.247-.062.5-.1.753Zm115.639-2.173,8.151-1.609c.051.245.087.5.133.743l-8.152,1.611C193.679,184.512,193.641,184.259,193.593,184.014Zm-115.135-.867c.046-.247.083-.5.133-.743l8.15,1.609c-.049.245-.086.5-.131.744Zm114.535-1.74,8.062-2.007c.062.245.111.491.171.735l-8.061,2.01C193.106,181.9,193.057,181.652,192.992,181.408ZM79.112,180.126c.059-.244.11-.493.172-.738l8.06,2.009c-.062.247-.112.5-.169.741Zm113.151-1.3,7.951-2.4c.075.238.136.488.209.725l-7.952,2.4C192.4,179.312,192.34,179.064,192.263,178.826ZM79.914,177.148c.071-.238.133-.488.206-.725l7.951,2.4c-.074.239-.135.486-.206.725Zm111.5-.858,7.821-2.787c.086.236.159.479.243.715L191.651,177C191.568,176.769,191.5,176.526,191.409,176.29ZM80.866,174.208c.083-.239.154-.479.242-.717l7.819,2.789c-.086.237-.159.477-.242.715Zm109.562-.417,7.672-3.166c.1.23.181.467.278.7l-7.672,3.168C190.612,174.263,190.527,174.023,190.428,173.791ZM81.956,171.326c.1-.234.181-.471.279-.7l7.669,3.166c-.094.232-.182.472-.276.7Zm107.374.027,7.5-3.538c.109.228.2.458.311.687l-7.5,3.539C189.536,171.813,189.438,171.579,189.329,171.353Zm-106.135-2.86c.107-.229.2-.462.311-.688l7.5,3.54c-.108.229-.2.463-.311.689Zm104.913.472,7.317-3.905c.122.224.229.453.345.673l-7.315,3.905C188.335,169.411,188.227,169.186,188.107,168.964ZM84.565,165.732c.117-.22.223-.449.343-.673l7.321,3.905c-.122.219-.229.447-.346.673Zm102.207.913,7.119-4.254c.128.213.248.437.376.654l-7.115,4.256C187.025,167.085,186.9,166.864,186.772,166.645Zm-100.7-3.61c.129-.218.248-.439.379-.655l7.116,4.257c-.131.218-.252.437-.378.655Zm99.247,1.356,6.9-4.6c.14.208.272.426.412.633l-6.9,4.6C185.594,164.813,185.461,164.6,185.32,164.391Zm-97.614-3.969c.14-.207.272-.425.411-.633l6.9,4.6c-.141.207-.272.421-.41.633Zm96.059,1.794,6.66-4.931c.15.2.293.407.443.609l-6.66,4.934C184.058,162.623,183.917,162.418,183.765,162.216Zm-94.292-4.332c.148-.2.293-.408.445-.609l6.658,4.933c-.149.2-.3.409-.442.609Zm92.625,2.227,6.409-5.253c.16.193.316.392.473.587l-6.407,5.255C182.413,160.5,182.258,160.3,182.1,160.112Zm-90.743-4.667c.158-.194.313-.393.472-.587l6.412,5.253c-.161.193-.316.391-.477.589Zm88.982,2.652,6.144-5.557c.168.184.336.375.5.562l-6.14,5.557C180.673,158.474,180.508,158.287,180.337,158.1Zm-86.979-5c.169-.19.335-.375.506-.562L100,158.09c-.17.188-.337.378-.5.566Zm85.118,3.077,5.86-5.858c.18.179.355.357.532.537l-5.859,5.854C178.83,156.523,178.654,156.348,178.475,156.172Zm-83.007-5.323.53-.535,5.863,5.855c-.179.179-.357.355-.534.536Zm81.058,3.489,5.567-6.133c.187.166.374.336.558.506l-5.567,6.134ZM97.689,148.7q.279-.254.563-.506l5.566,6.136c-.185.168-.374.336-.561.507Zm76.793,3.9,5.26-6.4c.194.158.392.315.585.479l-5.26,6.4C174.875,152.916,174.677,152.758,174.482,152.6Zm-74.475-5.926c.193-.162.39-.32.585-.475l5.261,6.4c-.2.159-.392.318-.586.477Zm72.358,4.295,4.94-6.655c.2.149.408.294.607.445l-4.939,6.655C172.774,151.261,172.567,151.114,172.365,150.967Zm-69.936-6.214c.2-.152.4-.3.608-.445l4.939,6.653c-.2.148-.407.3-.607.447Zm2.5-1.8c.21-.14.423-.275.635-.416l4.606,6.891c-.208.14-.421.274-.63.417Zm65.23,6.475,4.609-6.891c.208.141.423.276.631.418l-4.608,6.889C170.583,149.706,170.372,149.573,170.162,149.432Zm-2.267-1.417,4.266-7.105c.216.125.437.247.653.377l-4.268,7.112C168.332,148.266,168.112,148.146,167.9,148.016Zm-60.365-6.733c.216-.133.437-.253.653-.382l4.266,7.11c-.219.129-.437.249-.654.384Zm58.023,5.424,3.912-7.312c.222.116.45.226.67.346l-3.91,7.313C166,146.933,165.777,146.826,165.553,146.707ZM110.2,139.742c.221-.122.449-.232.672-.346l3.911,7.312c-.222.119-.45.226-.669.348Zm52.957,5.777,3.55-7.5c.228.105.462.2.689.311l-3.551,7.5C163.618,145.724,163.384,145.627,163.157,145.519Zm-50.207-7.191c.228-.11.462-.205.688-.311l3.55,7.5c-.228.105-.462.2-.688.31Zm47.747,6.119,3.178-7.664c.233.094.471.176.7.276l-3.178,7.666C161.168,144.626,160.928,144.543,160.7,144.447Zm-44.94-7.388c.232-.1.471-.183.7-.278l3.179,7.666c-.234.1-.472.18-.7.278ZM158.2,143.5l2.8-7.82c.238.085.479.158.716.244l-2.8,7.816C158.676,143.657,158.433,143.584,158.2,143.5Zm-39.562-7.582c.236-.083.478-.155.715-.238l2.8,7.817c-.239.081-.48.156-.718.24Zm37.005,6.756,2.411-7.949c.242.073.488.135.728.207l-2.411,7.947C156.129,142.811,155.883,142.749,155.641,142.679Zm-34.087-7.742c.241-.072.485-.134.728-.207l2.412,7.949c-.243.07-.488.132-.727.205Zm31.505,7.049,2.02-8.06c.244.057.495.106.737.169l-2.02,8.058C153.553,142.092,153.3,142.043,153.059,141.986Zm-28.529-7.892c.243-.062.491-.113.735-.17l2.019,8.058c-.243.059-.492.111-.735.172Zm25.906,7.323,1.622-8.151c.247.049.5.084.742.133l-1.62,8.154C150.934,141.5,150.683,141.463,150.437,141.417Zm-22.9-8.018c.245-.05.494-.085.74-.133l1.624,8.151c-.247.046-.5.084-.743.136Zm20.264,7.579,1.221-8.218c.249.033.5.057.751.1l-1.222,8.222C148.3,141.043,148.047,141.013,147.8,140.978Zm-17.226-8.122c.249-.039.5-.062.751-.1l1.219,8.22c-.248.035-.5.062-.748.1Zm14.564,7.816.812-8.272c.252.023.5.04.755.065l-.816,8.272C145.639,140.711,145.384,140.7,145.136,140.671Zm-11.5-8.207c.25-.025.5-.042.753-.065l.816,8.272c-.253.025-.5.04-.755.065Zm3.071-.24c.253-.015.5-.021.755-.034l.409,8.305c-.251.011-.5.019-.755.034Zm5.764,8.271.409-8.305c.25.014.5.019.755.034l-.41,8.3C142.969,140.513,142.719,140.505,142.466,140.495Zm-2.3-.058c-.129,0-.257.01-.383.01v-8.315c.127,0,.255-.008.383-.008s.247.008.374.008v8.315C140.413,140.443,140.294,140.437,140.167,140.437Zm22.76-51.8V65.269c0-2.021-.232-2.133-.577-2.133h-4.327v-.579h16.906v.579H170.6c-.345,0-.578.112-.578,2.133V89.612c0,8.488,1.155,13.91,9.464,13.91,7.844,0,12.98-3.867,12.98-14.484V74.153c0-9.058-1.557-11.017-5.882-11.017h-.463v-.579h13.5v.579h-.462c-4.326,0-5.886,1.959-5.886,11.017V89.038c0,11.714-6,15.521-14.769,15.521C166.391,104.559,162.927,99.941,162.927,88.634Zm-119.426,0V65.269c0-2.021-.23-2.133-.577-2.133H38.6v-.579H55.5v.579H51.173c-.346,0-.579.112-.579,2.133V89.612c0,8.488,1.156,13.91,9.464,13.91,7.843,0,12.981-3.867,12.981-14.484V74.153c0-9.058-1.556-11.017-5.887-11.017h-.458v-.579h13.5v.579h-.459c-4.326,0-5.883,1.959-5.883,11.017V89.038c0,11.714-6.006,15.521-14.774,15.521C46.963,104.559,43.5,99.941,43.5,88.634ZM0,83.271c0-14.424,9.287-21.4,18.866-21.4,4.385,0,8.133,1.439,9.867,1.439a4.48,4.48,0,0,0,2.6-.921h.463l.574,11.939h-.519c-2.882-8.6-7.154-11.828-13.1-11.828-9.29,0-10.617,7.789-10.617,19.731,0,12.467,1.446,21.584,10.906,21.584,7.618,0,11.538-5.827,12.923-13.045h.518L31.9,103.522h-.454a4.791,4.791,0,0,0-2.658-.811c-2.3,0-4.555,1.732-9.519,1.732C9.69,104.443,0,97.984,0,83.271Zm246.584,20.365v-.58h4.325c.348,0,.577-.11.577-2.134V65.269c0-2.021-.229-2.133-.577-2.133h-4.325v-.579h30.749c.233,3.692.522,7.385.809,11.073h-.576c-2.713-7.381-4.441-10.494-12.461-10.494-5.657,0-6.521.286-6.521,3V82.116H262.8c6.175,0,6.748-4.1,7.094-8.024h.522V90.309h-.522c-.574-5.653-2.306-7.617-7.152-7.617h-4.154V99.713c0,3.287.577,3.343,7.213,3.343,7.9,0,9.346-1.325,14.019-11.88h.518c-.4,4.154-.927,8.307-1.214,12.461Zm-8.477,0c-6.926,0-8.255-2.021-8.833-9.924-.576-8.423-2.075-10.1-10.211-10.1h-3.691v17.366c0,1.964.228,2.074.573,2.074h4.328v.58H203.368v-.58H207.7c.345,0,.575-.11.575-2.074V65.211c0-1.964-.23-2.075-.575-2.075h-4.332v-.579h16.156c9.407,0,15.81,2.538,15.81,9.808,0,7.154-6.171,10.037-12.983,10.616v.229c7.616.288,13.562.633,14.252,9.579.576,7.438.866,10.266,5.018,10.266h1.618v.58Zm-22.734-20.6H217.8c6.75,0,9.981-3.114,9.981-9.982,0-5.311-1.963-9.921-8.022-9.921h-4.382Zm-89.141,20.6v-.58h4.9c.346,0,.575-.11.575-2.134V63.136H128.2c-6.171,0-8.712,3.285-10.445,10.494h-.518l.576-11.073h34.85l.575,11.073h-.519c-2.25-6.628-4.558-10.494-10.443-10.494h-3.463v37.786c0,2.024.232,2.134.58,2.134h4.9v.58Zm-41.711,0v-.58h4.327c.347,0,.575-.11.575-2.134V65.269c0-2.021-.228-2.133-.575-2.133H84.521v-.579H102.35v.579H97.1c-.346,0-.577.112-.577,2.133V99.713c0,3.287.926,3.343,7.215,3.343,8.191,0,9.4-1.9,14.016-11.88h.521c-.4,4.154-.808,8.307-1.1,12.461Zm53.553-81.628C138.074,7.6,146.414.8,157.222.8c3.485,0,7.316,1.028,8.859,1.028a6.561,6.561,0,0,0,3.257-.912h.513l.573,12.232h-.513c-2.688-7.833-6.4-11.718-13.149-11.718-9.262,0-10.632,7.32-10.632,19.608,0,16.577,2.516,21.318,11.149,21.318,5.828,0,7.545-2.17,7.545-7.375V32.988c0-5.833-.688-6.346-4.861-6.522V25.84h16v.625c-3.83.286-4.113.919-4.113,8.178v7.43h-.516c-.627-1.261-1.086-1.886-2.458-1.886-2.917,0-5.031,2.8-11.775,2.8C147.275,42.987,138.074,37.1,138.074,22.008ZM70.051,41.674a6.072,6.072,0,0,0-2.913.855h-.231l-.458-13.605h.512c1.89,8.463,6.4,13.378,13.323,13.378,5.087,0,9.656-2.63,9.656-8.864,0-11.43-22.979-4.341-22.979-20.917C66.96,4,73.82.8,79.368.8c2.46,0,6.8.915,8.573.915A4.881,4.881,0,0,0,90.8.917h.225l.4,11.774h-.512C89.772,6.919,85.426,1.375,79.25,1.375c-5.2,0-9.031,2.971-9.031,7.886,0,11.031,23.437,4,23.437,20.581,0,9.314-7.146,13.089-13.491,13.089C75.708,42.931,71.823,41.674,70.051,41.674Zm110.032.517v-.574h4.286c.346,0,.577-.112.577-2.118V4.172c0-2-.23-2.113-.577-2.113h-4.286V1.489h30.471c.225,3.66.513,7.316.8,10.974h-.572c-2.684-7.313-4.4-10.4-12.343-10.4-5.6,0-6.461.282-6.461,2.97V20.863h4.17c6.117,0,6.691-4.055,7.033-7.942h.517V28.985h-.517c-.571-5.605-2.288-7.548-7.087-7.548h-4.116V38.3c0,3.261.571,3.317,7.144,3.317,7.832,0,9.26-1.315,13.891-11.774h.515c-.4,4.111-.912,8.227-1.2,12.348Zm-62.016,0v-.574h1.14c4.633,0,2.514-5.775.745-10.976l-.745-2.055H105.66l-.8,2.173c-1.661,4.455-4.059,10.858,1.2,10.858h.968v.574h-11.2v-.574h.628c3.316,0,4.916-3.547,7.656-10.92L115.607,0h.573l11.26,31.269c3.031,8.287,4.173,10.347,7.487,10.347h.631v.574ZM105.89,27.9h13.089l-6.23-18.4Z" transform="translate(0.5 0.5)" fill="#eeecea" stroke="rgba(0,0,0,0)" stroke-width="1"/></svg>