<svg xmlns="http://www.w3.org/2000/svg" width="219.6" height="219.596" viewBox="0 0 219.6 219.596"><path d="M0,109.3A109.3,109.3,0,1,1,109.3,218.6,109.3,109.3,0,0,1,0,109.3Zm.967,0A108.333,108.333,0,1,0,109.3.968,108.453,108.453,0,0,0,.967,109.3Zm3.226,0A105.108,105.108,0,1,1,109.3,214.408,105.109,105.109,0,0,1,4.192,109.3Zm1.934,0A103.174,103.174,0,1,0,109.3,6.128,103.288,103.288,0,0,0,6.126,109.3Zm102.595,97.461,0-12.9c.2,0,.389.013.581.013s.394-.008.592-.013v12.9c-.2,0-.391.014-.592.014S108.917,206.766,108.721,206.762Zm4.146-12.973c.392-.016.779-.029,1.169-.048l.634,12.883-1.171.048Zm-8.941,12.835.632-12.883c.392.019.782.031,1.174.048l-.637,12.883Zm13.081-13.108c.384-.039.78-.066,1.165-.1l1.265,12.838c-.389.039-.779.064-1.171.1ZM99.161,206.251l1.264-12.838c.389.038.778.065,1.171.1L100.33,206.35C99.94,206.315,99.548,206.286,99.161,206.251Zm21.962-13.211c.388-.054.779-.1,1.164-.15l1.892,12.753c-.385.059-.778.1-1.166.151ZM94.4,205.639l1.9-12.756c.384.058.774.1,1.16.155l-1.891,12.754C95.18,205.736,94.784,205.7,94.4,205.639Zm30.837-13.28c.38-.071.769-.129,1.151-.206L128.9,204.8c-.382.077-.77.131-1.153.205ZM89.7,204.8l2.513-12.645c.383.077.773.135,1.156.206L90.851,205C90.465,204.928,90.079,204.875,89.7,204.8Zm39.592-13.316c.378-.091.76-.164,1.139-.265l3.134,12.5c-.378.1-.764.173-1.142.27ZM85.022,203.717l3.133-12.5c.379.1.764.176,1.143.267l-3.133,12.5C85.787,203.887,85.4,203.81,85.022,203.717ZM133.308,190.4c.374-.11.757-.2,1.13-.319l3.74,12.329c-.372.113-.756.208-1.131.32Zm-52.885,12.01,3.742-12.329c.372.115.75.212,1.127.319l-3.741,12.331C81.176,202.619,80.8,202.523,80.423,202.411Zm56.833-13.281c.37-.13.744-.245,1.113-.377l4.337,12.124c-.367.135-.743.247-1.113.376ZM75.88,200.872l4.342-12.121c.364.134.741.247,1.113.375L76.993,201.25C76.62,201.121,76.246,201.009,75.88,200.872Zm65.269-13.213c.358-.148.731-.279,1.091-.43l4.927,11.892c-.358.15-.727.283-1.09.431ZM71.433,199.12l4.928-11.9c.36.155.731.286,1.089.434l-4.928,11.893C72.161,199.4,71.791,199.275,71.433,199.12ZM144.949,186c.356-.171.718-.319,1.067-.486l5.51,11.634c-.354.168-.713.316-1.071.482ZM67.063,197.141l5.506-11.631c.354.167.713.319,1.068.479l-5.506,11.638C67.778,197.46,67.412,197.312,67.063,197.141Zm81.616-12.989c.348-.185.7-.354,1.044-.543l6.068,11.344c-.342.191-.7.361-1.042.542ZM62.813,194.958l6.068-11.344c.34.185.695.356,1.043.539L63.854,195.5C63.506,195.314,63.155,195.144,62.813,194.958ZM152.3,182.129c.338-.2.682-.392,1.013-.595l6.62,11.034c-.336.2-.68.389-1.014.59Zm-93.64,10.429,6.617-11.03c.336.2.676.4,1.012.595l-6.62,11.028C59.334,192.951,58.99,192.761,58.658,192.559Zm97.172-12.632c.326-.219.655-.428.977-.647l7.149,10.689c-.321.219-.654.424-.979.64ZM54.642,189.969l7.15-10.689c.322.22.652.425.981.647l-7.149,10.682C55.3,190.393,54.965,190.188,54.642,189.969Zm104.593-12.416c.316-.231.633-.456.945-.692l7.665,10.323c-.313.234-.631.463-.948.695Zm-108.49,9.62,7.663-10.318c.313.234.631.459.946.691l-7.662,10.322C51.378,187.635,51.058,187.409,50.745,187.173ZM30.846,109.3A78.454,78.454,0,1,1,109.3,187.756,78.543,78.543,0,0,1,30.846,109.3Zm77.17,72v4.487c.428.006.855.031,1.284.031s.861-.025,1.3-.031l0-4.487v-3.252c-.433.01-.859.032-1.294.032s-.856-.022-1.284-.032Zm3.368-3.271.161,3.249.22,4.477c.864-.023,1.722-.064,2.578-.12l-.221-4.483-.16-3.249C113.1,177.965,112.247,178,111.383,178.03Zm-6.9,3.123-.22,4.483c.852.056,1.713.1,2.574.12l.221-4.477.16-3.249c-.864-.027-1.723-.065-2.578-.126Zm10.276-3.308.319,3.24.439,4.464c.86-.071,1.715-.148,2.569-.245l-.441-4.47-.319-3.24Q116.042,177.75,114.755,177.845Zm-13.8,2.989-.439,4.47c.851.1,1.707.171,2.567.245l.439-4.464.316-3.24c-.855-.07-1.714-.148-2.562-.251Zm17.149-3.335.475,3.217.662,4.438c.852-.109,1.707-.225,2.552-.37l-.657-4.439-.478-3.219C119.814,177.27,118.963,177.389,118.107,177.5Zm-20.66,2.843-.66,4.441c.845.142,1.7.257,2.551.37l.659-4.438.478-3.217c-.854-.113-1.7-.231-2.553-.377Zm24.01-3.358.634,3.19.877,4.4c.847-.152,1.695-.313,2.533-.492l-.877-4.406-.635-3.194C123.15,176.672,122.3,176.833,121.457,176.984Zm-27.479,2.7-.877,4.406c.836.179,1.683.34,2.532.492l.878-4.4.634-3.19c-.849-.151-1.694-.312-2.531-.5Zm30.782-3.371.788,3.155,1.091,4.359c.842-.2,1.679-.392,2.506-.615l-1.092-4.365-.788-3.157Q126.018,176.022,124.76,176.308ZM90.534,178.84,89.441,183.2c.83.222,1.663.422,2.5.618l1.093-4.36.792-3.152c-.84-.2-1.677-.4-2.5-.623Zm37.5-3.371.949,3.108,1.3,4.307c.831-.238,1.657-.48,2.471-.74l-1.307-4.306-.945-3.117C129.69,174.987,128.868,175.231,128.036,175.469Zm-40.888,2.368-1.308,4.306c.818.26,1.643.5,2.471.74l1.307-4.307.945-3.108c-.831-.238-1.653-.482-2.469-.749Zm44.113-3.369,1.1,3.06,1.516,4.236c.815-.276,1.625-.557,2.43-.859l-1.518-4.243-1.1-3.062C132.887,173.905,132.076,174.188,131.26,174.468ZM83.8,176.662,82.283,180.9q1.207.451,2.43.859l1.52-4.237,1.1-3.062c-.816-.276-1.631-.562-2.429-.864Zm50.636-3.361,1.245,3.007,1.723,4.163c.727-.287,1.446-.582,2.162-.891l.221-.1-1.724-4.16-1.246-3C136.034,172.664,135.238,172.989,134.438,173.3Zm-53.905,2.022-1.722,4.16.22.1c.716.309,1.437.6,2.162.891l1.724-4.163,1.246-3.007c-.8-.312-1.6-.637-2.382-.982Zm57.01-3.332,1.39,2.937,1.93,4.075c.634-.287,1.261-.588,1.89-.888.145-.073.294-.141.44-.212l-1.928-4.072-1.391-2.943C139.1,171.275,138.326,171.635,137.542,171.992Zm-60.218,1.833L75.4,177.9c.122.057.249.115.373.176.648.314,1.3.624,1.956.92l1.931-4.072,1.39-2.94c-.783-.356-1.561-.717-2.332-1.1Zm63.266-3.307,1.533,2.872,2.128,3.969c.134-.07.269-.138.409-.215.433-.222.859-.45,1.285-.681.193-.106.383-.22.575-.325l-2.12-3.965-1.536-2.87C142.115,169.725,141.358,170.127,140.59,170.519ZM74.2,172.173l-2.123,3.965c.185.105.37.212.56.315.421.231.848.457,1.273.679.149.077.292.155.437.228l2.126-3.969,1.534-2.868q-1.15-.589-2.276-1.22ZM41.808,109.3A67.492,67.492,0,1,0,109.3,41.809,67.491,67.491,0,0,0,41.808,109.3ZM143.548,168.91l1.674,2.786,2.32,3.87c.044-.026.091-.049.133-.071q1.053-.612,2.082-1.251c.337-.209.668-.425,1-.641q1.087-.7,2.145-1.43c.322-.222.637-.454.954-.683q1.049-.748,2.074-1.535c.315-.241.624-.482.932-.734q1.014-.8,2-1.633.444-.386.886-.769.972-.855,1.909-1.737c.288-.267.572-.544.857-.817.619-.6,1.225-1.209,1.822-1.823.274-.284.544-.563.815-.849.583-.628,1.162-1.268,1.725-1.914.262-.3.522-.595.776-.894.559-.653,1.1-1.325,1.634-2,.242-.307.485-.612.725-.921.524-.682,1.031-1.374,1.534-2.074.231-.322.464-.644.687-.968.491-.7.961-1.425,1.427-2.149.213-.324.428-.652.635-.984.25-.4.5-.8.741-1.207.2-.334.386-.674.579-1.013l-3.87-2.316-2.791-1.67c-.43.751-.866,1.487-1.326,2.217l2.793,1.67,3.872,2.318c-.209.332-.421.66-.634.981l-3.752-2.5-2.707-1.8c-.466.723-.939,1.441-1.431,2.147l2.706,1.8,3.754,2.5c-.225.328-.458.647-.686.972l-3.625-2.689-2.613-1.933c-.5.7-1.011,1.39-1.535,2.068l2.611,1.939L170,155.865q-.359.462-.726.92l-3.487-2.859-2.516-2.064q-.8,1.015-1.633,2l2.513,2.061,3.49,2.86c-.257.3-.518.6-.776.9l-3.344-3.031-2.41-2.177c-.565.643-1.139,1.284-1.732,1.912l2.409,2.181,3.345,3.027c-.266.284-.537.569-.809.848l-3.191-3.187-2.3-2.3q-.894.932-1.823,1.823l2.3,2.3,3.195,3.187q-.429.414-.859.821l-3.033-3.343-2.184-2.408c-.627.592-1.26,1.166-1.911,1.733l2.188,2.409,3.029,3.343c-.3.255-.59.515-.888.765l-2.866-3.482-2.06-2.516c-.657.56-1.318,1.107-1.993,1.642l2.064,2.507,2.863,3.488c-.307.247-.618.494-.931.735l-2.692-3.628-1.936-2.609c-.68.531-1.367,1.039-2.07,1.541l1.938,2.609,2.688,3.621q-.474.344-.955.682l-2.507-3.75-1.806-2.7c-.707.495-1.421.965-2.143,1.435l1.805,2.7,2.509,3.748c-.332.216-.661.43-1,.64l-2.323-3.866-1.672-2.8C145.035,168.042,144.3,168.479,143.548,168.91Zm-72.624,6.584a1.142,1.142,0,0,1,.122.065l2.321-3.866,1.672-2.79c-.745-.427-1.485-.868-2.212-1.327l-1.672,2.789-2.324,3.869C69.521,174.668,70.222,175.083,70.924,175.495ZM44.947,150.675c.466.725.939,1.444,1.429,2.149.222.325.452.639.681.958q.747,1.05,1.534,2.074c.238.315.486.621.729.932.537.671,1.081,1.342,1.636,2,.253.3.509.591.764.887.57.643,1.146,1.283,1.732,1.911.271.283.543.572.817.859.6.615,1.205,1.225,1.823,1.823.284.273.566.544.85.807q.942.884,1.909,1.737c.3.258.6.518.9.779q.981.83,1.993,1.633c.31.242.612.49.923.725.679.524,1.372,1.036,2.067,1.537.321.229.643.464.968.689.7.489,1.422.964,2.145,1.43.329.213.657.425.988.631-.329-.21-.659-.421-.985-.634l2.507-3.748,1.807-2.7c-.724-.47-1.439-.94-2.144-1.435l-1.805,2.7-2.508,3.75c-.328-.228-.647-.459-.969-.688l2.69-3.624,1.939-2.613q-1.05-.748-2.069-1.535l-1.939,2.609-2.691,3.621q-.46-.356-.921-.722l2.866-3.488,2.064-2.507q-1.014-.8-1.993-1.642L62.618,164.1l-2.865,3.482c-.3-.254-.6-.515-.9-.775l3.033-3.344,2.183-2.407c-.646-.563-1.284-1.142-1.907-1.73l-2.185,2.4-3.033,3.339c-.285-.263-.567-.531-.851-.807l3.194-3.187,2.3-2.3q-.927-.892-1.823-1.823l-2.3,2.3-3.19,3.187q-.416-.424-.821-.858l3.345-3.024,2.408-2.184c-.588-.627-1.16-1.264-1.73-1.911l-2.408,2.181-3.346,3.024q-.386-.435-.767-.885l3.49-2.86,2.516-2.057q-.838-.984-1.635-2l-2.514,2.064-3.49,2.859c-.245-.31-.492-.615-.735-.933l3.63-2.682,2.613-1.938c-.525-.679-1.036-1.373-1.535-2.071l-2.613,1.933-3.626,2.686c-.229-.319-.457-.634-.683-.958l3.758-2.5,2.7-1.8c-.49-.706-.967-1.425-1.432-2.147l-2.7,1.8-3.755,2.5c-.212-.329-.431-.66-.639-.994C44.515,150.017,44.733,150.349,44.947,150.675Zm1.912-5.529-3.871,2.312c.194.345.385.689.585,1.026.238.4.488.8.737,1.194l3.873-2.319,2.791-1.67c-.456-.727-.894-1.467-1.324-2.212Zm122.488-2.355,2.868,1.529,3.982,2.125c.418-.751.816-1.514,1.21-2.277l-3.977-2.126-2.867-1.528C170.166,141.28,169.767,142.04,169.347,142.791Zm-124.175-.749-3.979,2.126c.391.763.791,1.528,1.211,2.277l3.98-2.122,2.869-1.532q-.629-1.127-1.212-2.277Zm125.75-2.232,2.94,1.39,4.078,1.923c.02-.035.036-.075.053-.11.363-.735.706-1.479,1.044-2.229l-4.078-1.916-2.938-1.39C171.666,138.26,171.3,139.041,170.922,139.811Zm-127.289-.958-4.074,1.927c.337.752.688,1.5,1.052,2.241.014.029.028.062.046.091l4.073-1.924,2.944-1.387c-.383-.77-.746-1.55-1.1-2.331Zm128.718-2.108,3.009,1.239,4.166,1.721c.341-.787.66-1.584.976-2.383l-4.16-1.718-3.008-1.245C173.019,135.158,172.7,135.957,172.351,136.744ZM42.26,135.6,38.1,137.321c.314.8.636,1.6.978,2.383l4.163-1.721,3.008-1.239c-.343-.787-.667-1.586-.984-2.386Zm131.368-1.982,3.064,1.094,4.241,1.515c.3-.8.582-1.621.86-2.434l-4.239-1.513-3.064-1.093C174.217,132.007,173.932,132.817,173.627,133.621ZM41.043,132.274l-4.237,1.512c.276.816.555,1.627.859,2.432L41.9,134.7l3.064-1.091q-.452-1.207-.86-2.433Zm133.708-1.846,3.112.942,4.308,1.3c.261-.818.5-1.644.735-2.475l-4.3-1.3-3.113-.936C175.254,128.787,175.01,129.611,174.75,130.428ZM40,128.9l-4.3,1.3c.232.831.471,1.657.734,2.475l4.306-1.3,3.117-.942c-.263-.817-.508-1.641-.742-2.468Zm135.709-1.7,3.156.787,4.363,1.087c.221-.827.419-1.67.615-2.506l-4.359-1.087-3.157-.787C176.131,125.535,175.928,126.372,175.705,127.2ZM39.118,125.467l-4.361,1.085c.193.843.392,1.679.616,2.506l4.362-1.087,3.157-.785c-.222-.83-.426-1.666-.62-2.5Zm137.389-1.56,3.19.631,4.41.871c.179-.835.335-1.682.489-2.532l-4.4-.871L177,121.373C176.847,122.222,176.686,123.068,176.506,123.908Zm-138.1-1.9L34,122.878c.154.85.309,1.7.488,2.532l4.41-.871,3.191-.631c-.181-.84-.342-1.682-.492-2.532Zm138.726-1.412,3.222.473,4.444.655c.137-.845.251-1.7.362-2.553l-4.441-.653-3.217-.476C177.4,118.9,177.278,119.749,177.136,120.595ZM37.873,118.507l-4.442.651c.112.856.229,1.707.366,2.554l4.445-.654,3.217-.475c-.138-.843-.26-1.7-.365-2.551Zm139.735-1.264,3.24.316,4.467.435c.1-.85.172-1.706.239-2.567l-4.465-.435-3.236-.314C177.784,115.535,177.706,116.394,177.608,117.242Zm-140.1-2.251-4.465.435c.068.861.145,1.717.241,2.567l4.467-.435,3.236-.316c-.1-.848-.173-1.707-.241-2.565Zm140.4-1.106,3.25.154,4.483.222c.053-.859.088-1.717.116-2.58l-4.481-.218-3.248-.155C178.008,112.17,177.97,113.033,177.911,113.885ZM37.319,111.453l-4.479.216c.028.861.061,1.72.115,2.576l4.486-.212,3.247-.157c-.056-.852-.095-1.715-.119-2.576ZM178.082,109.3c0,.464-.025.92-.035,1.38l3.252.006,4.486,0c.007-.464.032-.923.032-1.39,0-.4-.022-.792-.028-1.191l-4.485,0-3.252,0C178.061,108.5,178.082,108.9,178.082,109.3Zm-145.3,0c0,.4.026.794.032,1.193l4.483,0,3.256.006c-.011-.4-.031-.8-.031-1.2,0-.46.023-.917.035-1.377l-3.253,0-4.485-.007C32.807,108.379,32.778,108.834,32.778,109.3Zm148.383-4.725-3.248.158c.057.852.1,1.715.118,2.576l3.248-.157,4.481-.212c-.026-.867-.059-1.721-.116-2.579ZM32.839,106.927l4.479.217,3.25.154c.024-.86.063-1.722.119-2.573l-3.247-.161-4.486-.212C32.9,105.206,32.867,106.066,32.839,106.927Zm148.009-5.88-3.24.315c.1.853.176,1.708.245,2.568l3.236-.317,4.465-.433c-.068-.856-.143-1.714-.239-2.567Zm-147.8,2.133,4.465.433,3.236.317c.07-.86.146-1.715.243-2.568l-3.236-.315-4.468-.434C33.189,101.467,33.113,102.325,33.045,103.181Zm147.316-5.63-3.219.473c.139.846.26,1.695.367,2.55l3.219-.473,4.44-.652c-.114-.852-.227-1.708-.363-2.553ZM33.434,99.439l4.439.653,3.221.471c.105-.852.228-1.705.365-2.551l-3.217-.473L33.8,96.882C33.66,97.728,33.544,98.581,33.434,99.439ZM179.7,94.068l-3.192.63c.184.837.344,1.683.493,2.531l3.192-.629,4.4-.872c-.153-.847-.308-1.695-.489-2.532ZM34,95.728l4.4.872,3.193.629c.152-.848.311-1.694.494-2.531l-3.194-.63L34.493,93.2C34.313,94.033,34.154,94.881,34,95.728Zm144.862-5.1-3.156.789c.224.826.427,1.662.62,2.5l3.154-.786,4.36-1.086c-.193-.84-.392-1.677-.612-2.506ZM34.76,92.042l4.358,1.084,3.158.787c.193-.842.393-1.676.618-2.506l-3.158-.787-4.363-1.088C35.15,90.363,34.952,91.2,34.76,92.042Zm143.1-4.81-3.114.942c.263.817.5,1.644.74,2.473L178.6,89.7l4.3-1.3c-.236-.828-.476-1.654-.734-2.471ZM35.693,88.4,40,89.7l3.115.945q.351-1.249.739-2.473l-3.114-.942-4.308-1.3C36.166,86.75,35.927,87.576,35.693,88.4Zm141-4.5-3.065,1.093c.3.8.588,1.615.865,2.431l3.064-1.093,4.234-1.508c-.272-.816-.553-1.633-.854-2.438Zm-139.884.9,4.236,1.511L44.11,87.41c.277-.814.56-1.628.863-2.428l-3.066-1.094-4.239-1.515C37.364,83.179,37.082,83.991,36.812,84.8Zm138.549-4.188-3.007,1.241c.344.788.669,1.582.983,2.386L176.342,83l4.16-1.718c-.316-.8-.634-1.6-.976-2.39ZM38.1,81.285,42.257,83l3.006,1.24c.318-.8.638-1.6.983-2.386l-3.007-1.241-4.164-1.722C38.734,79.683,38.412,80.482,38.1,81.285Zm135.771-3.87L170.926,78.8c.382.769.744,1.546,1.1,2.332l2.942-1.387,4.074-1.923c-.354-.781-.713-1.567-1.093-2.335Zm-134.306.4,4.073,1.928,2.944,1.386c.354-.784.716-1.563,1.1-2.332L44.736,77.4l-4.079-1.924C40.278,76.249,39.919,77.029,39.563,77.81ZM172.219,74.28l-2.872,1.528c.42.755.819,1.515,1.215,2.281l2.869-1.532,3.979-2.122c-.394-.766-.795-1.528-1.213-2.277Zm-131.026.155,3.977,2.122,2.871,1.532c.391-.766.791-1.525,1.212-2.281L46.38,74.28,42.4,72.158C41.984,72.906,41.584,73.669,41.193,74.435ZM170.419,71.24l-2.794,1.673c.456.722.9,1.462,1.325,2.212l2.793-1.67,3.871-2.319c-.3-.508-.579-1.026-.883-1.531-.141-.231-.293-.454-.437-.682ZM69.627,43.858c-.266.16-.518.334-.781.5-.335.21-.666.428-1,.641-.723.463-1.44.945-2.143,1.435-.322.219-.639.446-.957.674q-1.05.753-2.072,1.539c-.312.24-.621.49-.932.733-.672.537-1.341,1.081-1.993,1.637-.3.255-.591.512-.888.766q-.971.856-1.911,1.737c-.287.274-.573.543-.859.818-.617.6-1.224,1.208-1.823,1.823-.269.283-.539.562-.8.849-.591.627-1.166,1.267-1.733,1.913q-.393.444-.775.9c-.558.656-1.1,1.322-1.636,1.994-.241.309-.485.615-.722.921-.522.685-1.031,1.379-1.535,2.077q-.348.478-.687.968c-.491.7-.963,1.425-1.431,2.146-.209.328-.423.652-.631.987-.146.236-.3.46-.445.695-.306.5-.584,1.013-.875,1.522l3.869,2.315,2.791,1.673c.428-.75.868-1.485,1.324-2.216l-2.789-1.673-3.875-2.316c.208-.335.422-.66.633-.987l3.753,2.5,2.706,1.809c.465-.725.938-1.445,1.431-2.146l-2.7-1.808-3.759-2.5c.227-.327.459-.645.69-.968L50.691,67.5l2.615,1.936c.5-.7,1.01-1.392,1.535-2.075l-2.614-1.936L48.6,62.735c.237-.309.482-.615.724-.92l3.488,2.863,2.518,2.058c.533-.675,1.076-1.337,1.633-1.994l-2.516-2.058L50.96,59.821l.774-.9,3.343,3.034,2.414,2.181c.566-.646,1.141-1.284,1.732-1.911L56.811,60.04l-3.344-3.03q.4-.425.807-.846l3.193,3.188,2.3,2.3q.894-.936,1.823-1.831l-2.3-2.3L56.1,54.337c.285-.273.57-.546.86-.816l3.031,3.342,2.184,2.412c.627-.591,1.264-1.174,1.912-1.736L61.9,55.129l-3.033-3.342c.294-.261.589-.518.888-.766L62.618,54.5l2.065,2.516c.651-.561,1.317-1.107,1.991-1.642L64.609,52.87l-2.866-3.487c.313-.247.62-.5.931-.733l2.691,3.622L67.3,54.884c.681-.527,1.373-1.039,2.071-1.541l-1.939-2.608L64.75,47.11c.316-.225.632-.457.954-.676l2.508,3.748,1.808,2.705c.7-.492,1.42-.968,2.143-1.432l-1.809-2.708L67.847,45c.333-.216.664-.435,1-.644l2.322,3.87,1.672,2.792c.728-.459,1.467-.9,2.211-1.328L73.379,46.9l-2.318-3.87C70.582,43.307,70.095,43.572,69.627,43.858Zm102.6,21.92-3.756,2.5-2.7,1.808c.489.7.965,1.419,1.427,2.146l2.709-1.809,3.751-2.5c.2.3.4.606.589.914-.192-.308-.39-.611-.588-.914-.464-.722-.939-1.444-1.427-2.146-.225-.324-.452-.636-.68-.955q-.751-1.05-1.53-2.074-.366-.474-.736-.937c-.535-.672-1.076-1.338-1.634-1.994-.25-.3-.508-.591-.769-.886q-.844-.971-1.728-1.911c-.27-.29-.546-.577-.82-.862-.6-.616-1.2-1.227-1.822-1.823-.28-.271-.562-.544-.848-.807q-.941-.884-1.91-1.735-.444-.4-.9-.778c-.653-.556-1.319-1.1-1.993-1.637-.305-.241-.614-.488-.922-.724q-1.021-.786-2.072-1.537c-.319-.229-.64-.464-.966-.685-.706-.49-1.423-.965-2.145-1.435-.329-.212-.66-.425-.99-.631q.5.309.99.634l-2.509,3.749-1.807,2.705q1.085.7,2.142,1.432l1.809-2.705,2.507-3.748c.325.223.646.457.968.685l-2.693,3.622-1.936,2.612q1.048.753,2.068,1.537l1.939-2.612,2.689-3.622c.311.239.617.482.921.726l-2.863,3.487-2.065,2.509q1.013.8,1.991,1.642l2.064-2.516,2.866-3.483c.3.257.6.514.9.774l-3.03,3.343-2.185,2.41c.646.562,1.283,1.141,1.909,1.73l2.185-2.406,3.032-3.339c.286.264.566.534.849.8l-3.195,3.188-2.3,2.3q.927.894,1.823,1.831l2.3-2.3,3.191-3.188q.414.425.821.86L161.8,60.05l-2.41,2.184q.884.936,1.732,1.911l2.409-2.185,3.345-3.023c.257.29.514.586.769.885l-3.49,2.863-2.515,2.058c.555.657,1.1,1.319,1.633,1.994l2.516-2.058,3.49-2.863c.245.305.491.621.734.933l-3.628,2.686-2.613,1.932c.526.686,1.036,1.374,1.535,2.078l2.615-1.936,3.626-2.687C171.77,65.141,172,65.456,172.223,65.777Zm-26.992-18.87L143.559,49.7c.746.428,1.48.868,2.21,1.329l1.672-2.793,2.324-3.866c-.265-.167-.522-.347-.788-.508-.466-.284-.95-.547-1.425-.82Zm-3.11-1.7-1.533,2.866c.764.393,1.524.8,2.273,1.216l1.535-2.868,2.128-3.976c-.75-.418-1.511-.819-2.278-1.216ZM72.076,42.449,74.2,46.425l1.535,2.868c.749-.42,1.507-.823,2.273-1.216l-1.535-2.866-2.126-3.979C73.586,41.63,72.827,42.03,72.076,42.449Zm66.864,1.222-1.39,2.944c.782.356,1.563.714,2.33,1.1l1.391-2.943L143.2,40.7q-1.153-.57-2.331-1.094ZM75.407,40.7l1.929,4.072,1.394,2.943c.769-.386,1.546-.746,2.329-1.1l-1.39-2.938L77.742,39.6C76.957,39.953,76.177,40.313,75.407,40.7Zm60.272,1.591L134.433,45.3c.8.315,1.6.64,2.384.984l1.246-3.007,1.725-4.159c-.788-.344-1.584-.665-2.385-.984ZM78.812,39.113l1.723,4.159,1.247,3.007c.785-.344,1.581-.669,2.383-.98l-1.245-3.007L81.2,38.129C80.4,38.448,79.6,38.769,78.812,39.113Zm53.553,1.961-1.1,3.063c.817.277,1.628.56,2.429.869l1.1-3.068,1.518-4.24c-.8-.3-1.619-.586-2.43-.859ZM82.3,37.7l1.517,4.24L84.915,45c.8-.307,1.615-.59,2.432-.869l-1.1-3.062-1.512-4.234C83.918,37.109,83.105,37.392,82.3,37.7Zm46.677,2.318-.944,3.115c.83.238,1.652.482,2.469.746l.946-3.115,1.308-4.306c-.819-.261-1.643-.5-2.471-.741Zm-43.133-3.56,1.306,4.306.95,3.115c.813-.265,1.637-.508,2.466-.746l-.945-3.115-1.305-4.3C87.488,35.954,86.662,36.2,85.845,36.457Zm39.713,2.682-.79,3.153c.839.2,1.676.4,2.5.626l.79-3.159,1.094-4.361c-.826-.221-1.666-.421-2.5-.617Zm-36.1-3.745,1.094,4.36.788,3.161c.828-.225,1.664-.43,2.5-.623l-.789-3.153-1.092-4.359C91.123,34.973,90.287,35.173,89.457,35.394Zm32.631,3.031-.634,3.19q1.272.225,2.528.5l.634-3.194.88-4.406c-.841-.181-1.687-.338-2.534-.493ZM93.1,34.514l.878,4.406.635,3.194c.84-.184,1.681-.348,2.53-.5l-.633-3.19-.877-4.4C94.786,34.176,93.944,34.333,93.1,34.514ZM118.6,37.885l-.478,3.217c.857.112,1.706.235,2.552.373l.48-3.22.659-4.439c-.847-.137-1.7-.257-2.551-.369ZM96.8,33.812l.656,4.442.477,3.22c.844-.138,1.7-.26,2.552-.373l-.477-3.217-.659-4.439C98.5,33.558,97.647,33.671,96.8,33.812Zm18.269,3.705-.319,3.237q1.288.1,2.567.247l.319-3.236.441-4.468c-.853-.1-1.708-.173-2.569-.245ZM100.518,33.3l.439,4.468.32,3.236c.849-.1,1.707-.18,2.562-.247l-.316-3.237-.439-4.465C102.226,33.125,101.369,33.2,100.518,33.3Zm11.026,4.024-.161,3.249c.864.029,1.721.065,2.578.126l.16-3.252.221-4.481c-.857-.055-1.715-.094-2.578-.12Zm-7.291-4.358.22,4.481.158,3.252c.856-.061,1.715-.1,2.578-.126l-.158-3.249-.22-4.478C105.97,32.87,105.108,32.909,104.253,32.963Zm6.33,7.591,0-3.255V32.812c-.427-.01-.852-.033-1.28-.033s-.864.023-1.3.033v7.743c.432-.014.862-.037,1.3-.037S110.152,40.541,110.583,40.555Zm51.95,134.457c.3-.241.606-.489.91-.741L171.6,184.2c-.3.251-.6.5-.908.739ZM47.005,184.2l8.157-9.933q.451.378.907.741l-8.16,9.932C47.606,184.7,47.3,184.456,47.005,184.2Zm118.683-11.879c.292-.263.581-.52.868-.787l8.637,9.518q-.435.4-.872.785ZM43.4,181.047l8.636-9.515c.291.264.58.524.869.784l-8.637,9.516C43.977,181.571,43.685,181.31,43.4,181.047Zm125.326-11.57c.276-.273.55-.55.826-.83l9.093,9.08c-.275.28-.55.56-.829.83ZM39.96,177.724l9.093-9.077q.412.42.828.83l-9.1,9.08C40.507,178.286,40.234,178.007,39.96,177.724ZM171.6,166.491c.261-.29.519-.581.782-.875l9.525,8.631c-.261.29-.518.581-.783.871ZM36.678,174.234l9.53-8.62c.261.29.519.582.781.868L37.462,175.1C37.2,174.819,36.941,174.523,36.678,174.234Zm-3.1-3.634,9.939-8.151c.249.305.489.612.738.914l-9.944,8.147C34.069,171.21,33.827,170.9,33.583,170.6Zm140.759-7.237c.25-.3.492-.609.736-.914l9.939,8.148c-.244.305-.486.614-.734.91Zm2.576-3.253c.233-.312.457-.634.688-.945l10.328,7.651c-.229.313-.454.634-.688.946ZM30.655,166.8l10.333-7.648c.23.315.453.636.688.946l-10.331,7.652C31.109,167.437,30.889,167.111,30.655,166.8Zm70.159-8.89c0-.54.208-2.236.555-4.664a7.883,7.883,0,0,1-6.458,3.419,7.773,7.773,0,0,1-2.687-.475,7.878,7.878,0,0,1-4.7-10.082c.841-2.312,14.919-26.652,19.576-34.68-8.108,4.7-32.306,18.691-34.61,19.526a7.841,7.841,0,0,1-7.164-13.818c-2.425.347-4.113.56-4.638.56a8.442,8.442,0,0,1,0-16.884c.54,0,2.226.21,4.635.55a7.858,7.858,0,0,1,7.167-13.84c2.311.842,26.659,14.918,34.683,19.576-4.7-8.106-18.691-32.3-19.527-34.608a7.848,7.848,0,0,1,13.815-7.179c-.346-2.418-.553-4.1-.553-4.621a8.44,8.44,0,1,1,16.88,0c0,.54-.209,2.235-.556,4.663a7.849,7.849,0,0,1,13.845,7.137c-.84,2.307-14.919,26.656-19.574,34.682,8.105-4.7,32.3-18.691,34.607-19.527a7.858,7.858,0,0,1,7.206,13.815c2.4-.345,4.075-.553,4.594-.553a8.441,8.441,0,1,1,0,16.881c-.539,0-2.222-.21-4.632-.551a7.857,7.857,0,0,1-4.478,14.316h0a7.9,7.9,0,0,1-2.688-.475c-2.309-.843-26.654-14.918-34.682-19.573,4.7,8.106,18.69,32.3,19.53,34.6a7.883,7.883,0,0,1-4.7,10.085,7.782,7.782,0,0,1-2.691.475,7.873,7.873,0,0,1-6.428-3.378c.345,2.419.557,4.1.557,4.622a8.442,8.442,0,1,1-16.884,0Zm1.545,0a6.894,6.894,0,1,0,13.788,0c0-2.027-3.6-24.13-6.3-40.406v40.319h-.967V116.2C106.147,132.531,102.359,155.752,102.359,157.91Zm15.275-6.952a6.315,6.315,0,1,0,11.868-4.319c-.63-1.724-9.98-18.054-17.066-30.309L123.852,147.7l-.909.331-11.849-32.561C113.505,129.511,116.961,149.109,117.634,150.958Zm-28.658-4.319a6.329,6.329,0,0,0,3.779,8.1,6.252,6.252,0,0,0,2.155.383,6.341,6.341,0,0,0,5.938-4.161c.65-1.795,3.926-20.309,6.324-34.236l-11.7,32.153-.911-.329L106.7,115.207C99.542,127.561,89.627,144.857,88.976,146.639Zm57.661-17.015a6.317,6.317,0,1,0,4.321-11.872c-1.8-.658-20.477-3.957-34.428-6.357l32.405,11.792-.33.91L115.377,112C127.722,119.15,144.868,128.977,146.637,129.624Zm-79-11.992A6.317,6.317,0,0,0,69.8,129.884a6.431,6.431,0,0,0,2.161-.379c1.734-.635,18.218-10.079,30.495-17.175l-31.5,11.458-.331-.907,32.3-11.753C88.9,113.538,69.482,116.963,67.639,117.633Zm90.271-1.393a6.893,6.893,0,1,0,0-13.785c-2.038,0-24.457,3.647-40.762,6.359h40.738v.968H116.556C132.871,112.507,155.766,116.24,157.91,116.24ZM53.795,109.254a6.9,6.9,0,0,0,6.893,6.9c2.039,0,24.468-3.65,40.773-6.366H60.836v-.968h41.2c-16.313-2.723-39.206-6.459-41.348-6.459A6.9,6.9,0,0,0,53.795,109.254Zm94.3-13.536L115.9,107.436c14.013-2.408,33.233-5.8,35.061-6.472A6.314,6.314,0,0,0,148.8,88.716a6.461,6.461,0,0,0-2.162.379c-1.742.641-18.4,10.178-30.692,17.3l31.814-11.58ZM63.866,92.749a6.327,6.327,0,0,0,3.773,8.1c1.816.661,20.7,4,34.672,6.4L69.784,95.409l.331-.91,32.89,11.975C90.679,99.337,73.721,89.619,71.962,88.979A6.222,6.222,0,0,0,69.8,88.6,6.343,6.343,0,0,0,63.866,92.749ZM92.873,63.865a6.326,6.326,0,0,0-3.772,8.1c.636,1.752,10.27,18.569,17.4,30.879L94.87,70.9l.909-.33,11.62,31.92c-2.407-13.991-5.767-33.03-6.432-34.853a6.331,6.331,0,0,0-8.094-3.775Zm31.288,6.188-11.934,32.785c7.125-12.316,16.758-29.122,17.4-30.874a6.318,6.318,0,0,0-11.872-4.325c-.663,1.822-4.027,20.87-6.433,34.866l11.931-32.781Zm-21.708-9.363c0,2.055,3.7,24.8,6.426,41.138l0-41.053h.967l0,40.893c2.717-16.289,6.395-38.854,6.395-40.979a6.894,6.894,0,1,0-13.788,0Zm76.887,96.035c.219-.325.425-.655.637-.985l10.7,7.138c-.218.325-.421.66-.64.98ZM27.924,162.879l10.7-7.134c.213.326.417.656.635.981l-10.7,7.133C28.345,163.538,28.139,163.2,27.924,162.879Zm153.661-9.639c.2-.336.389-.68.585-1.018l11.038,6.6c-.2.338-.385.681-.587,1.013Zm-156.2,5.573,11.038-6.6c.2.334.382.679.587,1.013l-11.039,6.6C25.767,159.494,25.583,159.148,25.384,158.813Zm158.279-9.183c.186-.341.354-.7.537-1.042l11.348,6.053c-.179.348-.345.7-.535,1.046Zm-160.61,5.011L34.4,148.588c.18.346.347.7.536,1.042l-11.355,6.057C23.4,155.346,23.233,154.99,23.052,154.642Zm162.5-8.7c.168-.35.319-.717.484-1.067l11.636,5.494c-.165.353-.314.714-.482,1.064ZM20.92,150.349l11.638-5.494c.16.356.311.72.482,1.071L21.4,151.412C21.234,151.065,21.083,150.7,20.92,150.349Zm166.343-8.207c.153-.36.284-.726.431-1.089l11.9,4.918c-.151.36-.28.731-.43,1.085ZM19,145.97l11.9-4.918c.146.363.282.729.429,1.089l-11.9,4.913C19.285,146.7,19.153,146.33,19,145.97Zm169.779-7.689c.134-.368.247-.746.375-1.112l12.13,4.329c-.131.367-.244.743-.377,1.108Zm-171.476,3.2,12.131-4.329c.129.369.245.745.375,1.112l-12.13,4.323C17.55,142.23,17.438,141.853,17.307,141.486Zm172.8-7.15c.115-.373.212-.752.322-1.126l12.334,3.727c-.113.371-.207.757-.324,1.127Zm-174.272,2.6,12.332-3.727c.111.374.207.752.319,1.126l-12.331,3.728C16.043,137.694,15.947,137.308,15.837,136.937Zm175.4-6.593c.095-.376.171-.761.261-1.141l12.5,3.12c-.091.376-.166.761-.263,1.141ZM14.592,132.306l12.5-3.12c.092.383.17.769.264,1.142l-12.5,3.119C14.759,133.069,14.684,132.682,14.592,132.306Zm177.578-6.017c.077-.384.136-.77.207-1.156l12.645,2.5c-.07.383-.127.771-.207,1.151ZM13.578,127.636l12.643-2.5c.073.386.129.771.208,1.156l-12.646,2.5C13.707,128.408,13.649,128.019,13.578,127.636ZM192.9,122.206c.055-.386.094-.778.148-1.164l12.755,1.875c-.055.39-.09.783-.149,1.167Zm-180.112.7,12.756-1.876c.055.385.091.778.148,1.165L12.94,124.066C12.883,123.682,12.849,123.29,12.792,122.9Zm180.633-4.825c.04-.39.065-.782.1-1.171l12.834,1.247c-.036.391-.054.786-.1,1.171Zm-181.181.076,12.836-1.247c.032.389.052.781.094,1.171l-12.839,1.247C12.3,118.939,12.275,118.544,12.244,118.153Zm181.5-4.213c.023-.387.03-.779.043-1.167l12.883.614c-.015.392-.02.782-.043,1.174Zm-181.82-.566,12.879-.615c.016.389.024.779.047,1.165l-12.885.62C11.948,114.152,11.944,113.763,11.927,113.374ZM193.862,110c0-.231.016-.464.016-.695,0-.161-.012-.316-.012-.476l12.9.016c0,.154.007.305.007.46,0,.241-.012.473-.016.714Zm-182.027-.231c0-.158-.013-.311-.013-.464,0-.238.015-.472.019-.708l12.9.014c0,.235-.015.463-.015.695,0,.16.01.319.01.48Zm181.912-5.086,12.884-.615c.022.386.026.783.041,1.172l-12.882.614C193.776,105.46,193.771,105.071,193.747,104.679Zm-181.82.541c.017-.389.021-.785.04-1.171l12.885.617c-.022.39-.031.782-.047,1.169Zm181.5-4.691,12.834-1.247c.041.386.058.779.1,1.168L193.524,101.7C193.489,101.309,193.469,100.915,193.428,100.529ZM12.24,100.45c.035-.389.058-.782.094-1.168l12.839,1.247c-.042.386-.062.779-.1,1.172Zm180.666-4.034,12.755-1.876c.058.382.091.776.148,1.165L193.052,97.58C193,97.194,192.962,96.8,192.906,96.416ZM12.8,95.685c.055-.385.089-.778.146-1.161L25.7,96.4c-.059.382-.1.779-.148,1.167Zm179.376-3.37,12.643-2.5c.08.379.137.769.207,1.151l-12.645,2.5C192.306,93.087,192.247,92.695,192.172,92.315ZM13.578,90.97c.071-.382.129-.772.205-1.151l12.641,2.5c-.075.38-.131.772-.2,1.155Zm177.663-2.7,12.5-3.113c.1.38.173.762.266,1.141l-12.5,3.118C191.417,89.038,191.341,88.651,191.241,88.271ZM14.592,86.283c.094-.378.171-.765.267-1.144l12.5,3.116c-.1.383-.175.769-.263,1.148Zm175.517-2.016,12.332-3.728c.117.369.212.756.324,1.126l-12.334,3.727C190.321,85.019,190.228,84.637,190.109,84.267Zm-174.272-2.6c.11-.37.206-.757.32-1.126l12.332,3.728c-.113.37-.209.752-.319,1.125Zm172.948-1.332,12.131-4.323c.133.366.248.743.377,1.11L189.16,81.443C189.031,81.076,188.918,80.7,188.785,80.333ZM17.313,77.1c.13-.37.239-.743.376-1.113l12.128,4.326c-.134.367-.247.74-.375,1.11Zm169.95-.647,11.9-4.911c.15.357.279.725.43,1.087l-11.9,4.915C187.547,77.19,187.416,76.817,187.263,76.457ZM19,72.633c.149-.363.281-.73.433-1.087l11.9,4.911c-.148.36-.283.733-.429,1.091Zm166.553.042L197.2,67.187c.169.354.317.711.482,1.065l-11.639,5.491C185.879,73.389,185.728,73.025,185.558,72.675ZM20.925,68.238c.166-.356.315-.716.482-1.067l11.638,5.491c-.168.354-.318.717-.483,1.068Zm162.737.732,11.351-6.057c.19.347.355.7.535,1.045L184.2,70.015C184.016,69.663,183.848,69.313,183.662,68.97ZM23.052,63.958c.181-.344.347-.7.532-1.045L34.939,68.97c-.19.34-.356.693-.536,1.045Zm158.54,1.415,11.042-6.6c.2.33.385.68.583,1.016l-11.037,6.6C181.984,66.055,181.793,65.711,181.591,65.372Zm-156.2-5.6c.2-.338.385-.682.589-1.017l11.037,6.6c-.2.338-.391.679-.586,1.016Zm153.95,2.1,10.7-7.139c.219.322.422.661.64.982l-10.7,7.138C179.764,62.529,179.558,62.2,179.339,61.877ZM27.924,55.72c.215-.321.42-.66.637-.982l10.7,7.139c-.219.321-.422.653-.635.981Zm149,2.783,10.33-7.649c.234.311.455.63.688.946l-10.331,7.653C177.382,59.133,177.162,58.815,176.926,58.5ZM30.665,51.783c.229-.308.455-.634.688-.946l10.328,7.652c-.231.312-.457.635-.685.946Zm143.677,3.454,9.941-8.148c.248.3.49.608.734.911l-9.939,8.151C174.83,55.845,174.589,55.537,174.342,55.238ZM33.583,48c.245-.3.487-.611.733-.911l9.944,8.148c-.249.3-.489.607-.738.914Zm138.027,4.113,9.53-8.619c.262.286.521.582.779.871l-9.524,8.62C172.131,52.7,171.874,52.407,171.609,52.114ZM36.69,44.353c.264-.293.519-.581.785-.872L47,52.1c-.263.292-.521.586-.784.879Zm132.032,4.774,9.09-9.087c.279.277.55.554.824.834l-9.088,9.08C169.272,49.673,169,49.4,168.722,49.127ZM39.965,40.87c.273-.276.545-.553.823-.831l9.094,9.084c-.277.277-.554.55-.828.831ZM165.7,46.283l8.636-9.515c.29.257.58.521.866.785l-8.636,9.515C166.278,46.807,165.988,46.544,165.7,46.283ZM43.409,37.54c.29-.264.58-.524.872-.785l8.634,9.518c-.287.26-.58.52-.869.785Zm119.119,6.044,8.16-9.933c.3.245.608.489.908.743l-8.161,9.93C163.137,44.077,162.832,43.832,162.527,43.584ZM47.005,34.392c.3-.251.6-.5.906-.738l8.162,9.931c-.305.248-.608.492-.908.74Zm112.239,6.661,7.663-10.321c.313.231.632.456.942.69l-7.663,10.322C159.878,41.51,159.557,41.281,159.244,41.053ZM50.761,31.414c.313-.236.629-.462.945-.689l7.662,10.319c-.314.229-.632.461-.944.695Zm3.883-2.785c.325-.217.656-.426.985-.644l7.143,10.689c-.321.218-.653.424-.976.646ZM155.826,38.673l7.15-10.689c.323.219.656.428.978.647l-7.148,10.686C156.48,39.1,156.152,38.891,155.826,38.673Zm-3.516-2.2,6.618-11.022c.335.2.679.385,1.013.585l-6.62,11.033C152.988,36.864,152.647,36.679,152.31,36.475ZM58.675,26.032c.334-.207.679-.392,1.013-.592L66.3,36.468c-.338.2-.678.387-1.014.6Zm90,8.414L154.746,23.1c.345.179.7.35,1.039.536l-6.066,11.345C149.374,34.8,149.025,34.63,148.677,34.446Zm-85.863-10.8c.342-.19.7-.359,1.043-.536l6.068,11.341c-.346.184-.7.351-1.038.541ZM144.959,32.6l5.508-11.627c.354.163.715.312,1.068.481l-5.51,11.635C145.676,32.921,145.313,32.771,144.959,32.6ZM67.08,21.449c.354-.171.716-.319,1.067-.483L73.652,32.6c-.353.164-.715.316-1.067.482Zm74.063,9.492,4.93-11.89c.362.145.73.274,1.09.428l-4.928,11.892C141.876,31.217,141.5,31.088,141.143,30.941ZM71.434,19.48c.36-.155.731-.284,1.093-.431l4.929,11.893c-.362.147-.731.279-1.091.43Zm65.834,10,4.338-12.13c.37.132.743.245,1.111.379l-4.343,12.124C138.01,29.715,137.633,29.6,137.268,29.477ZM75.9,17.717c.365-.129.741-.241,1.11-.371l4.341,12.127c-.37.125-.743.242-1.112.373ZM133.3,28.2l3.74-12.33c.375.113.755.209,1.13.321L134.43,28.516C134.06,28.4,133.678,28.306,133.3,28.2ZM80.428,16.188c.373-.113.753-.209,1.129-.321L85.3,28.2c-.376.109-.756.205-1.127.319ZM129.3,27.122l3.132-12.5c.379.089.768.166,1.143.264l-3.135,12.5C130.063,27.287,129.676,27.21,129.3,27.122ZM85.045,14.88c.377-.1.762-.175,1.14-.264l3.132,12.5c-.377.091-.764.172-1.142.266ZM125.23,26.24,127.746,13.6c.383.075.77.129,1.151.206L126.385,26.45C126,26.369,125.612,26.311,125.23,26.24ZM89.7,13.8c.38-.077.766-.131,1.148-.206L93.371,26.24c-.382.07-.772.129-1.151.21Zm31.433,11.757,1.895-12.748c.387.051.778.087,1.165.147l-1.9,12.755C121.916,25.659,121.523,25.613,121.136,25.559Zm-26.72-12.6c.386-.059.782-.095,1.165-.15l1.892,12.751c-.386.054-.778.1-1.161.154Zm22.591,12.124,1.259-12.83c.392.035.782.062,1.171.1l-1.265,12.83C117.788,25.144,117.392,25.122,117.007,25.082ZM99.161,12.352c.389-.038.779-.065,1.169-.1l1.265,12.83c-.392.04-.782.062-1.171.1Zm4.763-.373c.393-.023.781-.032,1.172-.052l.634,12.882c-.389.017-.781.029-1.171.053Zm8.943,12.83.633-12.882c.388.02.779.029,1.171.052l-.634,12.878C113.647,24.837,113.259,24.826,112.867,24.809Zm-3.568-.089c-.2,0-.4.016-.595.016v-12.9c.2,0,.4-.013.595-.013s.382.013.579.013v12.9C109.682,24.728,109.5,24.719,109.3,24.719Z" transform="translate(0.5 0.5)" fill="#eeecea" stroke="rgba(0,0,0,0)" stroke-width="1"/></svg>